<svg xmlns="http://www.w3.org/2000/svg" width="242" height="270" fill="none" viewBox="0 0 242 270">
  <path stroke="#fff" d="M181.594 135.04c0 74.029-27.129 134.04-60.594 134.04s-60.593-60.011-60.593-134.04C60.407 61.012 87.535 1 121 1s60.594 60.012 60.594 134.04Z"/>
  <path stroke="#fff" d="M151.297 187.516C87.187 224.53 21.65 231.042 4.917 202.06c-16.732-28.981 21.676-82.481 85.786-119.495C154.814 45.55 220.35 39.039 237.082 68.02c16.733 28.982-21.675 82.482-85.785 119.496Z"/>
  <path stroke="#fff" d="M90.703 187.516c64.111 37.014 129.647 43.526 146.379 14.544 16.733-28.981-21.675-82.481-85.785-119.495C87.187 45.55 21.65 39.039 4.917 68.02c-16.732 28.982 21.676 82.482 85.786 119.496Z"/>
</svg>
