<svg xmlns="http://www.w3.org/2000/svg" width="240" height="205" fill="none" viewBox="0 0 240 205">
  <path fill="#fff" d="M223.942 141.165c-7.931-12.441-18.34-25.527-30.583-38.662 12.243-13.135 22.652-26.22 30.583-38.662 16.109-25.23 20.224-44.908 11.698-55.466-8.575-10.508-28.699-10.458-56.655.198-18.241 6.94-38.464 17.845-58.985 31.674-20.471-13.83-40.695-24.685-58.985-31.674C33.06-2.083 12.935-2.133 4.36 8.375-4.215 18.883-.051 38.611 16.058 63.841c7.93 12.441 18.34 25.576 30.583 38.662-12.243 13.135-22.652 26.221-30.583 38.662-16.11 25.23-20.224 44.908-11.698 55.466 4.263 5.205 11.35 7.832 20.868 7.832 9.616 0 21.71-2.677 35.787-8.03 18.24-6.94 38.464-17.844 58.985-31.674 20.471 13.83 40.695 24.734 58.985 31.674 14.077 5.353 26.171 8.03 35.787 8.03 9.517 0 16.605-2.627 20.868-7.832 8.575-10.508 4.411-30.186-11.698-55.466ZM179.679 10.407c13.284-5.055 24.783-7.682 34.102-7.88 9.467-.199 16.308 2.23 20.273 7.087 3.965 4.907 4.907 12.045 2.825 21.314-2.082 9.12-6.989 19.827-14.622 31.822-7.881 12.343-18.142 25.28-30.286 38.316-11.945-12.64-25.576-25.28-40.397-37.374-9.864-8.03-19.876-15.514-29.839-22.256 20.174-13.531 40-24.188 57.944-31.029ZM17.743 62.75C10.11 50.755 5.153 40.048 3.121 30.928 1.039 21.66 1.98 14.521 5.946 9.614c3.817-4.709 10.31-7.088 19.331-7.088h.992c9.368.199 20.818 2.826 34.102 7.881 17.943 6.791 37.77 17.498 57.894 30.98a438.883 438.883 0 0 0-29.84 22.255c-14.82 12.045-28.45 24.734-40.396 37.374C35.885 88.079 25.575 75.092 17.743 62.75ZM60.321 194.6c-13.284 5.056-24.783 7.683-34.102 7.881-9.467.198-16.308-2.231-20.273-7.088-3.965-4.907-4.907-12.045-2.825-21.314 2.082-9.12 6.989-19.827 14.622-31.822 7.881-12.342 18.142-25.279 30.286-38.315 11.945 12.639 25.576 25.279 40.397 37.373 9.864 8.03 19.876 15.515 29.839 22.256-20.174 13.532-40 24.188-57.944 31.029Zm29.344-54.821c-14.771-12.045-28.402-24.635-40.298-37.275 11.896-12.64 25.527-25.23 40.298-37.274A421.358 421.358 0 0 1 120 42.626a452.985 452.985 0 0 1 30.335 22.603c14.821 12.044 28.402 24.635 40.298 37.274-11.896 12.64-25.527 25.23-40.298 37.275A421.272 421.272 0 0 1 120 162.38a453.163 453.163 0 0 1-30.335-22.602Zm144.438 55.614c-3.965 4.907-10.805 7.286-20.273 7.088-9.368-.198-20.818-2.825-34.102-7.881-17.943-6.791-37.77-17.497-57.894-30.98a438.436 438.436 0 0 0 29.839-22.255c14.821-12.045 28.452-24.734 40.398-37.374 12.143 12.987 22.404 25.973 30.285 38.315 7.633 11.996 12.59 22.702 14.622 31.823 2.033 9.169 1.091 16.357-2.875 21.264Z"/>
  <path fill="#0F0F0F" fill-rule="evenodd" d="m192.539 102.503.381-.409c12.225-13.115 22.61-26.172 30.516-38.576 8.034-12.582 13.05-23.74 15.006-33.035 1.957-9.299.837-16.646-3.269-21.73-4.129-5.06-11.092-7.646-20.591-7.616-9.497.031-21.442 2.682-35.383 7.997-18.188 6.92-38.37 17.8-58.864 31.61l-.335.227-.336-.227c-20.442-13.81-40.625-24.64-58.863-31.61C46.86 3.82 34.915 1.168 25.418 1.137c-9.5-.03-16.464 2.558-20.593 7.618C.697 13.813-.423 21.159 1.539 30.464c1.962 9.301 6.99 20.471 15.025 33.054 7.906 12.404 18.291 25.51 30.515 38.575l.383.409-.382.41c-12.225 13.116-22.61 26.172-30.516 38.576-8.034 12.582-13.05 23.74-15.006 33.036-1.956 9.297-.837 16.644 3.267 21.728 4.106 5.012 10.985 7.611 20.403 7.611 9.515 0 21.533-2.652 35.574-7.991 18.187-6.919 38.37-17.8 58.863-31.61l.335-.226.336.226c20.443 13.811 40.625 24.691 58.862 31.61 14.041 5.339 26.059 7.991 35.574 7.991 9.418 0 16.297-2.599 20.403-7.612 4.128-5.058 5.248-12.392 3.286-21.69-1.962-9.295-6.991-20.466-15.025-33.073-7.906-12.404-18.291-25.46-30.516-38.576l-.381-.409Zm43.101 94.128c-4.263 5.205-11.351 7.832-20.868 7.832-9.616 0-21.71-2.677-35.787-8.03-18.29-6.94-38.514-17.844-58.985-31.674-20.52 13.83-40.744 24.734-58.985 31.674-14.077 5.353-26.171 8.03-35.787 8.03-9.517 0-16.605-2.627-20.868-7.832-8.526-10.558-4.411-30.236 11.698-55.466 7.93-12.441 18.34-25.527 30.583-38.662-12.243-13.086-22.652-26.22-30.583-38.662C-.052 38.61-4.215 18.883 4.36 8.375c8.575-10.508 28.7-10.458 56.655.198C79.305 15.563 99.53 26.418 120 40.247c20.521-13.83 40.744-24.734 58.985-31.674 27.956-10.656 48.08-10.706 56.655-.198 8.526 10.558 4.411 30.236-11.698 55.466-7.931 12.441-18.34 25.527-30.583 38.662 12.243 13.135 22.652 26.221 30.583 38.662 16.109 25.28 20.273 44.958 11.698 55.466ZM179.465 9.847c13.32-5.07 24.891-7.72 34.303-7.92 9.559-.2 16.62 2.248 20.751 7.308l.002.002c4.129 5.11 5.045 12.468 2.944 21.823l-.001.002c-2.103 9.212-7.047 19.984-14.701 32.01-7.905 12.38-18.19 25.346-30.353 38.403l-.435.467-.44-.464c-11.926-12.62-25.538-25.242-40.34-37.32-9.851-8.02-19.849-15.494-29.796-22.225l-.738-.499.74-.496c20.201-13.55 40.068-24.231 58.064-31.091Zm-27.891 53.845c14.65 11.955 28.138 24.443 39.984 36.937l.413.437.41-.441c11.965-12.887 22.083-25.671 29.876-37.875 7.633-11.995 12.54-22.702 14.622-31.822 2.082-9.269 1.14-16.407-2.825-21.314-3.965-4.857-10.806-7.286-20.273-7.088-9.319.199-20.818 2.826-34.102 7.881-17.784 6.78-37.418 17.308-57.406 30.67l-.538.36.536.363c9.786 6.646 19.616 14.006 29.303 21.892ZM47.618 100.577C35.652 87.786 25.486 74.953 17.743 62.75 10.11 50.755 5.153 40.048 3.121 30.928 1.039 21.66 1.98 14.521 5.946 9.614c3.817-4.709 10.31-7.088 19.331-7.088h.992c9.368.199 20.818 2.826 34.102 7.881 17.783 6.73 37.417 17.307 57.357 30.62l.537.36-.534.364a438.933 438.933 0 0 0-29.305 21.892c-14.65 11.906-28.138 24.441-39.984 36.937l-.413.436a56.24 56.24 0 0 1-.411-.439Zm12.966-90.73c17.997 6.81 37.865 17.542 58.015 31.041l.738.495-.734.5a438.41 438.41 0 0 0-29.798 22.225c-14.801 12.028-28.413 24.7-40.34 37.32l-.438.463-.436-.464C35.427 88.469 25.093 75.452 17.236 63.072 9.585 51.047 4.59 40.274 2.537 31.059.433 21.705 1.35 14.347 5.478 9.237c3.978-4.907 10.687-7.31 19.798-7.31h1.004c9.462.2 20.983 2.85 34.303 7.92Zm-.05 185.312c-13.32 5.07-24.89 7.721-34.302 7.921-9.56.2-16.62-2.249-20.75-7.309l-.003-.002c-4.13-5.11-5.045-12.468-2.944-21.823v-.002c2.104-9.212 7.048-19.983 14.702-32.01 7.905-12.38 18.19-25.346 30.353-38.402l.435-.468.44.464c11.926 12.62 25.538 25.242 40.34 37.321 9.851 8.02 19.849 15.493 29.796 22.224l.738.499-.74.496c-20.2 13.55-40.068 24.231-58.064 31.091Zm27.892-53.845c-14.65-11.955-28.138-24.443-39.984-36.937l-.413-.436-.41.44c-11.965 12.887-22.084 25.672-29.876 37.875-7.633 11.995-12.54 22.702-14.622 31.822-2.082 9.269-1.14 16.407 2.825 21.314 3.966 4.857 10.806 7.286 20.273 7.088 9.319-.198 20.818-2.825 34.102-7.881 17.784-6.78 37.418-17.308 57.406-30.669l.538-.36-.536-.363c-9.786-6.647-19.616-14.007-29.303-21.893Zm.86-1.071c-14.79-12.06-28.44-24.668-40.356-37.329l-.387-.411.387-.411c11.916-12.66 25.566-25.269 40.355-37.328a421.908 421.908 0 0 1 30.379-22.635l.337-.228.337.23a453.735 453.735 0 0 1 30.375 22.632c14.84 12.06 28.441 24.668 40.357 37.329l.387.411-.387.411c-11.916 12.661-25.567 25.269-40.356 37.329 0 0 0-.001 0 0a421.945 421.945 0 0 1-30.378 22.634l-.337.228-.337-.229a453.693 453.693 0 0 1-30.375-22.633Zm.379-75.014c-14.771 12.044-28.402 24.635-40.298 37.274 11.896 12.64 25.527 25.23 40.298 37.275M192.48 104.43c11.965 12.84 22.083 25.672 29.875 37.875 7.633 11.996 12.59 22.702 14.622 31.823 2.033 9.169 1.091 16.357-2.875 21.264-3.965 4.907-10.805 7.286-20.273 7.088-9.368-.198-20.818-2.825-34.102-7.881-17.783-6.73-37.417-17.307-57.356-30.62l-.538-.36.534-.364a438.911 438.911 0 0 0 29.305-21.891c14.65-11.906 28.138-24.442 39.984-36.937l.414-.437.41.44Zm-12.966 90.729c-17.997-6.811-37.865-17.542-58.015-31.041l-.738-.494.734-.5a438.776 438.776 0 0 0 29.799-22.226c14.8-12.028 28.412-24.7 40.339-37.32l.439-.464.436.466c12.164 13.008 22.448 26.024 30.353 38.403 7.652 12.024 12.649 22.799 14.702 32.014 2.051 9.255 1.135 16.662-2.994 21.772-4.132 5.113-11.196 7.511-20.752 7.311-9.462-.2-20.984-2.851-34.303-7.921Zm-89.85-129.93A421.358 421.358 0 0 1 120 42.626L89.665 65.229ZM120 42.626a452.985 452.985 0 0 1 30.335 22.603L120 42.626Zm30.335 22.603c14.821 12.044 28.402 24.635 40.298 37.274l-40.298-37.274Z" clip-rule="evenodd"/>
  <path fill="#fff" d="m125.602 100.174 11.5-14.77-14.771 11.499-2.33-34.747-2.329 34.747-14.771-11.5 11.499 14.771-18.588 2.33 18.588 2.33-11.499 14.771 14.771-11.5 2.329 34.746 2.33-34.746 14.771 11.5-11.5-14.771 18.588-2.33-18.588-2.33Z"/>
</svg>