<svg xmlns="http://www.w3.org/2000/svg" width="100" height="100" fill="none" viewBox="0 0 100 100">
  <path fill="#fff" d="m42.753 91.627-.514 2.955 1.34-2.684.548.299-1.614 2.545 2.257-1.983.397.51-2.474 1.705 2.861-.943.155.606-2.928.642 2.988.225-.077.62-2.95-.535 2.68 1.36-.296.53-2.543-1.617 1.979 2.28-.508.377-1.706-2.455.946 2.843-.609.176-.638-2.952-.228 3.012-.619-.077.535-2.953-1.36 2.682-.526-.317 1.612-2.525-2.275 1.96-.38-.487 2.457-1.728-2.84.946-.179-.588 2.952-.66-3.012-.207.077-.62 2.973.517-2.703-1.343.32-.547 2.522 1.614-1.96-2.257.489-.4 1.724 2.479-.943-2.864.585-.158.662 2.934.204-2.994.619.077Zm-18.41-1.482.802.443a1.906 1.906 0 0 0 .097 1.42c.099.213.233.406.402.578.17.172.364.32.583.44.4.222.82.321 1.257.299.435-.024.857-.18 1.266-.47.407-.289.77-.72 1.086-1.294.316-.573.489-1.11.517-1.609.026-.5-.067-.941-.278-1.323a2.307 2.307 0 0 0-.921-.906 2.518 2.518 0 0 0-.683-.259 2.113 2.113 0 0 0-.7-.037 1.943 1.943 0 0 0-1.256.677l-.801-.442a3.05 3.05 0 0 1 .831-.727 2.831 2.831 0 0 1 2.003-.336c.346.065.686.19 1.02.374.564.312.99.728 1.277 1.247.287.519.416 1.102.387 1.75-.028.648-.235 1.321-.621 2.02-.385.698-.845 1.232-1.377 1.602-.533.369-1.095.57-1.687.603-.591.033-1.17-.106-1.734-.418a3.399 3.399 0 0 1-.86-.665 2.933 2.933 0 0 1-.562-.869 2.79 2.79 0 0 1-.22-1.007 3.017 3.017 0 0 1 .172-1.091Zm-.756-6.985-5.012 5.664-.685-.608 4.473-5.055-2.63-2.332.538-.608 3.316 2.94Zm-12.588-2.042 5.88-4.753.576.713-5.881 4.753-.575-.713Zm-4.332-11.33.434.806a1.904 1.904 0 0 0-.686 1.248c-.031.232-.022.466.027.703.05.236.133.465.252.686.218.404.516.714.896.931.379.215.818.313 1.319.291.499-.023 1.036-.19 1.612-.5.576-.312 1.011-.67 1.305-1.075.292-.406.452-.827.48-1.262a2.31 2.31 0 0 0-.285-1.26 2.523 2.523 0 0 0-.434-.589 2.119 2.119 0 0 0-.57-.41 1.942 1.942 0 0 0-1.421-.11l-.435-.806a3.044 3.044 0 0 1 1.092-.161 2.83 2.83 0 0 1 1.866.801c.256.242.475.531.656.867.306.568.44 1.148.4 1.74-.038.592-.245 1.152-.62 1.682-.374.53-.912.984-1.613 1.362-.702.38-1.376.58-2.024.602-.648.022-1.23-.113-1.745-.405-.515-.293-.926-.723-1.232-1.29a3.402 3.402 0 0 1-.364-1.026 2.937 2.937 0 0 1-.004-1.034c.058-.34.178-.661.36-.967a3 3 0 0 1 .734-.824Zm3.113-6.264-7.3 1.963-.237-.884 3.621-.975-.023-.085-4.502-2.308-.31-1.156 4.116 2.182 3.183-4.146.287 1.07-2.711 3.453 1.272.638 2.366-.637.238.885ZM.809 48.352 0 48.28l.502-5.651.809.071-.21 2.37 6.72.598-.082.913-6.72-.598-.21 2.37Zm6.379-16.089c.756.252 1.365.606 1.825 1.063.46.456.76.973.901 1.549.14.576.11 1.17-.094 1.783-.203.612-.533 1.107-.99 1.484-.457.377-1.007.611-1.649.701-.641.09-1.34.01-2.097-.242-.757-.251-1.365-.605-1.825-1.062-.46-.457-.761-.973-.902-1.55-.14-.576-.109-1.17.094-1.782.204-.613.534-1.107.991-1.485.457-.377 1.007-.61 1.648-.701.642-.09 1.341-.01 2.098.242Zm-.28.841c-.62-.206-1.18-.276-1.676-.21-.495.063-.911.235-1.248.515a2.29 2.29 0 0 0-.72 1.068 2.31 2.31 0 0 0-.063 1.29c.103.424.334.811.692 1.161.359.348.85.625 1.47.832.621.207 1.18.278 1.675.214.496-.065.913-.237 1.248-.515.337-.28.578-.637.722-1.072.144-.434.165-.864.062-1.287-.103-.426-.333-.813-.692-1.16-.359-.35-.848-.629-1.47-.836Zm8.588-16.242-.586.703a1.902 1.902 0 0 0-1.412-.174 2.068 2.068 0 0 0-.643.286 2.523 2.523 0 0 0-.543.49 2.31 2.31 0 0 0-.53 1.177c-.06.432.013.877.218 1.334.207.455.562.893 1.064 1.313.502.42.996.69 1.48.813.486.12.936.114 1.35-.021.416-.138.77-.382 1.064-.734.16-.192.289-.4.384-.622a2.12 2.12 0 0 0 .17-.68 1.947 1.947 0 0 0-.427-1.363l.587-.703c.252.3.437.619.555.954a2.84 2.84 0 0 1-.051 2.032c-.13.328-.317.639-.561.932-.413.495-.902.834-1.465 1.018-.563.184-1.16.2-1.79.048-.63-.151-1.252-.482-1.864-.994-.612-.511-1.048-1.064-1.31-1.658-.26-.594-.35-1.184-.27-1.772.08-.587.326-1.129.739-1.624a3.4 3.4 0 0 1 .816-.719 2.93 2.93 0 0 1 .958-.388c.336-.072.68-.08 1.03-.024a3 3 0 0 1 1.037.376Zm9.854-6.272c.47.644.76 1.285.87 1.925.11.639.056 1.234-.163 1.785-.22.55-.59 1.017-1.11 1.397-.52.38-1.077.592-1.668.634-.59.042-1.174-.087-1.749-.386-.575-.3-1.098-.771-1.568-1.416-.47-.644-.76-1.286-.87-1.925-.11-.64-.056-1.234.164-1.785.22-.551.59-1.017 1.11-1.398.52-.38 1.076-.592 1.667-.633.591-.042 1.174.086 1.75.386.574.3 1.097.771 1.567 1.415Zm-.715.522c-.386-.529-.8-.91-1.243-1.145-.44-.236-.879-.338-1.315-.306a2.286 2.286 0 0 0-1.206.452 2.31 2.31 0 0 0-.8 1.015c-.161.405-.198.854-.109 1.347.091.492.33 1.002.715 1.531.387.53.8.912 1.24 1.148.443.234.881.336 1.316.305a2.306 2.306 0 0 0 1.209-.454c.369-.27.635-.607.796-1.012.164-.407.2-.856.11-1.348-.09-.493-.327-1.004-.713-1.533Zm6.713.488-2.935-6.972 2.353-.993c.547-.23 1.035-.32 1.465-.27a2.01 2.01 0 0 1 1.11.467c.308.263.548.6.721 1.01.173.411.246.82.22 1.227a2.032 2.032 0 0 1-.43 1.127c-.264.344-.667.63-1.209.859l-1.687.711-.315-.749 1.66-.7c.374-.158.647-.349.82-.574.171-.225.262-.47.271-.732a1.9 1.9 0 0 0-.16-.819 1.875 1.875 0 0 0-.471-.683 1.21 1.21 0 0 0-.715-.308c-.282-.03-.613.035-.992.194l-1.482.626 2.62 6.223-.844.355Zm6.565-10.466 1.031-.186 2.69 3.102.087-.016L43.157.186 44.19 0l-1.9 4.863.553 3.068-.9.163-.553-3.069-3.477-3.891ZM57.914 8.53l.727-2.91-1.53 2.58-.527-.338 1.796-2.421-2.396 1.814-.359-.539 2.591-1.52-2.922.733-.11-.616 2.967-.427-2.964-.442.122-.612 2.903.748-2.574-1.552.334-.506 2.419 1.797L56.583 1.9l.533-.34 1.523 2.574-.736-2.905.62-.13.422 2.99.446-2.988.611.122-.747 2.906 1.55-2.576.502.355-1.791 2.4 2.411-1.79.343.515-2.575 1.545 2.902-.738.135.6-2.991.444 2.988.425-.122.612-2.927-.731 2.598 1.535-.358.523-2.399-1.793 1.792 2.393-.517.364-1.54-2.598.733 2.925-.595.115-.447-2.974-.422 2.97-.611-.121Zm20.845 3.006-.767-.5A1.907 1.907 0 0 0 78 9.61a2.071 2.071 0 0 0-.36-.604 2.521 2.521 0 0 0-.55-.482 2.304 2.304 0 0 0-1.231-.389c-.436-.007-.868.118-1.297.376-.428.259-.82.663-1.177 1.212-.357.549-.568 1.071-.632 1.567-.063.498-.002.944.18 1.34.186.396.47.72.853.97.21.137.432.24.663.309.231.068.463.098.696.088a1.944 1.944 0 0 0 1.301-.585l.767.5a3.05 3.05 0 0 1-.882.664 2.833 2.833 0 0 1-2.021.19 3.397 3.397 0 0 1-.99-.448c-.541-.352-.935-.797-1.184-1.336-.249-.538-.335-1.13-.26-1.774.076-.644.332-1.3.767-1.969.435-.668.932-1.168 1.49-1.497.558-.33 1.133-.49 1.726-.48.592.01 1.158.191 1.699.544.32.208.589.45.809.726.222.277.388.579.498.906.111.326.16.666.146 1.021a3.015 3.015 0 0 1-.251 1.076Zm.248 7.021 5.409-5.284.64.656-4.83 4.716 2.455 2.517-.581.568-3.093-3.173Zm12.406 2.953-6.21 4.312-.522-.753 6.21-4.312.522.752Zm3.497 11.615-.374-.836a1.904 1.904 0 0 0 .775-1.195 2.07 2.07 0 0 0 .024-.703 2.515 2.515 0 0 0-.202-.703 2.307 2.307 0 0 0-.826-.993c-.362-.243-.793-.371-1.294-.387-.499-.013-1.047.115-1.644.383s-1.057.594-1.379.976c-.321.384-.511.793-.571 1.224-.06.435.005.86.193 1.278.102.23.233.436.39.619.158.183.337.333.538.45a1.944 1.944 0 0 0 1.41.213l.375.836c-.38.095-.747.122-1.1.081a2.83 2.83 0 0 1-1.803-.935 3.402 3.402 0 0 1-.592-.913c-.264-.588-.355-1.176-.273-1.764.082-.587.328-1.131.74-1.632.412-.501.982-.915 1.709-1.242.727-.327 1.415-.478 2.062-.453.648.025 1.218.202 1.711.531.493.33.871.788 1.135 1.377.156.348.253.698.289 1.049.037.353.013.697-.071 1.032a2.787 2.787 0 0 1-.43.938 3.01 3.01 0 0 1-.791.769Zm-3.558 6.021 7.423-1.428.173.9-3.683.708.017.087 4.323 2.63.226 1.175-3.948-2.476-3.475 3.903-.209-1.088 2.955-3.247-1.222-.728-2.407.463-.173-.9Zm7.847 15.783.801.13-.91 5.6-.802-.13.382-2.348-6.66-1.085.148-.904 6.659 1.085.382-2.348ZM91.67 70.512c-.737-.306-1.318-.703-1.744-1.192-.426-.489-.688-1.026-.786-1.61-.099-.586-.024-1.176.223-1.772.247-.596.612-1.065 1.096-1.409.483-.343 1.048-.536 1.695-.58.646-.042 1.338.089 2.074.395.736.306 1.317.703 1.743 1.192.426.49.688 1.026.787 1.61.098.586.024 1.176-.223 1.772-.248.596-.613 1.066-1.096 1.409-.483.343-1.048.536-1.695.58-.647.043-1.338-.089-2.074-.395Zm.34-.819c.604.252 1.156.362 1.656.333.498-.028.926-.169 1.282-.423.355-.253.62-.59.796-1.013a2.31 2.31 0 0 0 .156-1.283c-.072-.43-.274-.833-.606-1.208-.332-.373-.801-.685-1.406-.936-.604-.251-1.156-.364-1.655-.336-.5.03-.927.17-1.282.423a2.308 2.308 0 0 0-.797 1.017c-.176.423-.227.85-.155 1.28.07.431.273.834.606 1.207.332.375.8.688 1.404.94Zm-9.745 15.576.636-.66a1.9 1.9 0 0 0 1.396.278c.23-.04.451-.12.661-.239a2.52 2.52 0 0 0 .577-.448c.319-.33.523-.709.615-1.137.09-.426.05-.875-.122-1.346-.173-.469-.495-.931-.965-1.386-.47-.456-.943-.762-1.417-.92-.476-.155-.925-.18-1.348-.076a2.306 2.306 0 0 0-1.114.654c-.175.18-.317.378-.429.592a2.12 2.12 0 0 0-.218.667 1.95 1.95 0 0 0 .326 1.39l-.636.659a3.052 3.052 0 0 1-.484-.993 2.84 2.84 0 0 1 .198-2.023 3.39 3.39 0 0 1 .627-.888c.448-.464.96-.767 1.535-.91.576-.141 1.172-.114 1.79.083.617.197 1.212.572 1.785 1.127.574.555.969 1.138 1.186 1.749.218.61.265 1.207.143 1.787-.123.58-.408 1.102-.856 1.566a3.4 3.4 0 0 1-.866.657 2.927 2.927 0 0 1-.984.318c-.34.047-.683.03-1.029-.05-.344-.08-.68-.23-1.007-.451Zm-10.284 5.539c-.422-.676-.665-1.338-.728-1.983-.063-.646.034-1.235.293-1.769.26-.533.662-.97 1.209-1.313.547-.341 1.116-.512 1.709-.51.592 0 1.164.171 1.716.512.552.34 1.039.849 1.461 1.525.422.677.665 1.339.729 1.984.063.646-.035 1.235-.294 1.769-.258.533-.661.97-1.208 1.313-.547.341-1.117.512-1.709.51-.593 0-1.165-.172-1.716-.512-.552-.34-1.04-.849-1.462-1.526Zm.752-.47c.346.556.732.967 1.156 1.234.422.267.852.4 1.29.4.435 0 .847-.12 1.235-.363.388-.243.679-.56.871-.954.191-.392.26-.837.207-1.336-.055-.497-.255-1.023-.602-1.579-.347-.555-.731-.967-1.153-1.234-.425-.267-.855-.4-1.29-.4-.438 0-.85.122-1.239.364-.388.243-.677.56-.868.952-.192.394-.261.839-.206 1.336.052.498.252 1.025.599 1.58Zm-6.659-.973 2.421 7.167-2.419.819c-.562.19-1.055.244-1.48.162a2.01 2.01 0 0 1-1.073-.546 2.658 2.658 0 0 1-.646-1.06 2.681 2.681 0 0 1-.13-1.239c.053-.403.223-.767.51-1.093.288-.324.711-.58 1.268-.769l1.734-.587.26.77-1.706.578c-.384.13-.67.301-.859.513a1.256 1.256 0 0 0-.325.71 1.9 1.9 0 0 0 .1.828c.098.287.238.526.422.716.181.19.411.31.69.359.28.05.614.01 1.003-.121l1.524-.517-2.161-6.396.867-.294Zm-7.307 9.96-1.042.111-2.458-3.29-.088.01-1.711 3.733-1.043.111 2.247-4.712-.33-3.1.91-.097.33 3.1 3.185 4.134Zm-.047-49.132c0 5.027-4.072 9.102-9.094 9.102-5.023 0-9.094-4.075-9.094-9.102s4.071-9.102 9.094-9.102c5.022 0 9.093 4.075 9.093 9.102Z"/>
</svg>
