<svg xmlns="http://www.w3.org/2000/svg" width="32" height="32" fill="none" viewBox="0 0 32 32">
    <path stroke="#fff" stroke-width="2.667"
        d="M18.667 9.333c0-1.243 0-1.864-.202-2.353a2.67 2.67 0 0 0-1.444-1.444c-.49-.203-1.111-.203-2.354-.203h-4c-2.514 0-3.77 0-4.552.781-.781.782-.781 2.038-.781 4.552v4c0 1.243 0 1.864.203 2.354a2.668 2.668 0 0 0 1.444 1.444c.489.202 1.11.202 2.353.202" />
    <path stroke="#fff" stroke-width="2.667"
        d="M24 13.333h-8A2.667 2.667 0 0 0 13.335 16v8a2.667 2.667 0 0 0 2.667 2.666h8A2.667 2.667 0 0 0 26.667 24v-8a2.667 2.667 0 0 0-2.666-2.667Z" />
</svg>