<svg xmlns="http://www.w3.org/2000/svg" width="100" height="100" fill="none" viewBox="0 0 100 100">
  <path fill="#fff" d="M99.75 48.413a.372.372 0 0 0-.44.086l-15.387 15.44V32.652a.374.374 0 0 0-.252-.373.372.372 0 0 0-.441.086l-15.387 15.44V16.52a.376.376 0 0 0-.255-.347.376.376 0 0 0-.423.078L51.78 31.69V.405a.38.38 0 0 0-.25-.367.375.375 0 0 0-.436.08L.492 50.916a.375.375 0 0 0-.08.434.37.37 0 0 0 .365.25h31.16L16.57 67.042a.38.38 0 0 0-.088.443c.07.166.194.25.374.25H48.01l-15.374 15.44a.38.38 0 0 0-.088.443c.07.167.192.25.373.25h31.16l-15.376 15.44a.38.38 0 0 0-.085.443.37.37 0 0 0 .37.25h50.605a.39.39 0 0 0 .285-.117.39.39 0 0 0 .12-.29v-50.79a.373.373 0 0 0-.25-.39ZM1.757 50.788l49.22-49.402v31.117L32.749 50.788H1.756Zm49.22-17.152v17.152H33.893l17.085-17.152ZM17.829 66.924 33.082 51.6h18.3a.39.39 0 0 0 .285-.118c.08-.08.12-.177.12-.289V32.832l15.262-15.32v31.114L48.825 66.924H17.828Zm49.22-17.152v17.15H49.965l17.085-17.15Zm-33.15 33.28 15.256-15.316h18.3a.385.385 0 0 0 .285-.12.394.394 0 0 0 .12-.286V48.96l15.259-15.324v31.115l-18.221 18.3h-31Zm49.22-17.15v17.15H66.036l17.082-17.15ZM99.19 99.18H49.977l15.255-15.316h18.291a.391.391 0 0 0 .288-.12.391.391 0 0 0 .117-.286V65.09L99.19 49.772V99.18Z"/>
</svg>
