<svg xmlns="http://www.w3.org/2000/svg" width="87" height="87" fill="none" viewBox="0 0 87 87">
  <path fill="#fff" fill-rule="evenodd" d="M46.495 46.01c-2.267 2.267-2.552 5.554-2.556 5.554-.004 0-.5 1.996-.5 1.996-.03 0-.496-1.996-.5-1.996-.004 0-.29-3.287-2.556-5.555-2.231-2.233-5.444-2.448-5.444-2.445-.002 0-2.024-.5-2.001-.5.015-.016 1.999-.5 2-.5 0 .002 3.214-.213 5.445-2.445 2.266-2.269 2.552-5.555 2.556-5.555a277 277 0 0 0 .5-1.996c0-.003.496 1.996.5 1.996.004 0 .289 3.286 2.556 5.555 2.23 2.232 5.444 2.447 5.444 2.445.002 0 2 .484 2 .5 0 .015-1.998.5-2 .5 0-.003-3.213.212-5.444 2.445Z" clip-rule="evenodd"/>
  <path fill="#fff" d="M37.364 84.606c.007.415.172.754.494 1.016.323.262.735.418 1.237.47.367.037.694.01.982-.081a1.55 1.55 0 0 0 .689-.425c.172-.192.272-.421.299-.686a1.017 1.017 0 0 0-.1-.587 1.409 1.409 0 0 0-.373-.434 2.969 2.969 0 0 0-.5-.31 6.493 6.493 0 0 0-.49-.209l-.82-.312a7.364 7.364 0 0 1-.696-.308 3.344 3.344 0 0 1-.724-.487 2.094 2.094 0 0 1-.54-.718c-.132-.283-.179-.62-.14-1.008.046-.448.205-.841.477-1.18.269-.338.638-.59 1.107-.758.468-.168 1.02-.22 1.656-.155.594.06 1.099.209 1.514.444.412.236.725.538.938.906.211.368.31.78.296 1.237l-1.037-.105a1.305 1.305 0 0 0-.236-.81 1.72 1.72 0 0 0-.659-.525 2.866 2.866 0 0 0-.908-.24 2.73 2.73 0 0 0-1.051.081 1.782 1.782 0 0 0-.778.453 1.255 1.255 0 0 0-.348.767c-.028.275.026.507.162.695a1.7 1.7 0 0 0 .565.483c.24.134.501.256.785.367l.99.395c.629.252 1.115.57 1.457.954.343.384.486.856.43 1.415a2.022 2.022 0 0 1-.5 1.176c-.29.323-.657.558-1.103.706-.45.151-.938.2-1.467.146-.534-.055-1-.199-1.396-.433a2.478 2.478 0 0 1-.909-.878 1.947 1.947 0 0 1-.274-1.161l.971.099Zm-2.206-6.761 1.01.317-5.415 7.038-.994-.312-.425-8.87 1.01.316.276 7.442.062.02 4.476-5.951Zm-1.347 2.99-4.069-1.277.268-.854 4.069 1.277-.268.854Zm-11.893.553 4.044-7.29.883.49-4.045 7.29-.882-.49Zm-.945-10.759 1.951 1.676-5.428 6.325-2.038-1.75c-.613-.526-1.03-1.104-1.249-1.732a3.28 3.28 0 0 1-.073-1.946c.17-.669.537-1.33 1.099-1.986.565-.659 1.17-1.125 1.812-1.4a3.304 3.304 0 0 1 1.963-.212c.666.132 1.32.474 1.963 1.025Zm.602 1.698-1.136-.976c-.523-.449-1.043-.72-1.56-.814a2.456 2.456 0 0 0-1.508.202c-.488.228-.954.599-1.395 1.114-.439.51-.733 1.022-.882 1.533a2.432 2.432 0 0 0 .016 1.494c.16.485.487.939.98 1.363l1.223 1.05 4.262-4.966Zm-4.482-5.36.647.837-8.463 2.682-.638-.824 4.717-7.524.648.837-4.023 6.266.04.052 7.072-2.326Zm-2.814 1.684-2.61-3.373.708-.548 2.61 3.373-.708.548ZM9.943 54.377l-8.068 2.09-.253-.978 7.201-1.865-.97-3.752.866-.224 1.224 4.728Zm-1.466-6.662.054 1.057-8.478-2.635L0 45.097l8.168-3.48.054 1.057-6.88 2.843.003.065 7.132 2.133Zm-3.27-.226-.217-4.26.894-.045.216 4.26-.894.045ZM3.593 33.908l-.153.998a2.097 2.097 0 0 0-1.432.642 2.28 2.28 0 0 0-.443.636 2.78 2.78 0 0 0-.233.771c-.077.5-.02.97.17 1.414.19.441.513.819.967 1.133.455.31 1.038.521 1.752.63.713.11 1.333.084 1.86-.077.527-.163.948-.427 1.261-.79.315-.367.51-.8.586-1.299a2.78 2.78 0 0 0 .008-.806 2.336 2.336 0 0 0-.228-.739 2.144 2.144 0 0 0-1.179-1.041l.153-.998c.41.14.766.334 1.068.584a3.127 3.127 0 0 1 1.11 1.944c.064.384.065.783.001 1.2-.107.702-.375 1.3-.802 1.795-.427.495-.98.85-1.662 1.067-.68.217-1.455.26-2.324.126-.869-.133-1.596-.405-2.18-.816-.585-.41-1.007-.916-1.267-1.516s-.335-1.251-.228-1.954c.064-.415.184-.797.36-1.143.178-.349.405-.653.684-.912a3.07 3.07 0 0 1 .958-.611c.36-.148.758-.227 1.193-.238Zm5.852.342L1.63 31.356l.35-.946 3.481 1.289 1.543-4.169-3.48-1.289.35-.946 7.816 2.895-.35.947-3.496-1.296L6.3 32.01l3.495 1.295-.35.947Zm.722-14.51a2.94 2.94 0 0 0-.813-.09 2.27 2.27 0 0 0-.75.142 2.168 2.168 0 0 0-.657.386 2.69 2.69 0 0 0-.543.64c-.261.42-.39.868-.388 1.346.003.478.151.95.447 1.416.295.465.748.889 1.36 1.27.613.382 1.194.602 1.743.66.549.057 1.04-.021 1.475-.236a2.593 2.593 0 0 0 1.06-.98c.253-.405.39-.816.41-1.232a2.166 2.166 0 0 0-.288-1.186c-.21-.375-.533-.697-.966-.967l.22-.228-1.327 2.128-.76-.474 1.68-2.694.76.474c.582.363 1.01.803 1.286 1.32a3.04 3.04 0 0 1 .365 1.647c-.035.58-.228 1.15-.578 1.712-.39.627-.88 1.085-1.47 1.376-.59.288-1.238.395-1.947.321-.707-.076-1.433-.346-2.179-.812a5.572 5.572 0 0 1-1.37-1.165 3.94 3.94 0 0 1-.745-1.357 3.312 3.312 0 0 1-.114-1.434c.067-.482.242-.95.525-1.404.232-.373.505-.686.819-.938a3.298 3.298 0 0 1 2.14-.757 3.27 3.27 0 0 1 1.156.232l-.551.884Zm6.213 1.337-.729.767-3.932-7.962.718-.756 8.148 3.525-.729.767-6.8-3.029-.045.047 3.369 6.64Zm-2.09-2.527 2.938-3.092.649.617-2.938 3.092-.65-.617Zm6.91-2.278L16.44 9.43l2.31-1.61c.535-.371 1.037-.586 1.507-.642.469-.058.895.014 1.28.215.385.202.718.504.998.907s.447.818.5 1.245c.052.426-.03.847-.247 1.263-.219.413-.593.804-1.123 1.173l-1.87 1.302-.52-.748 1.843-1.284c.365-.254.622-.512.77-.774.15-.264.208-.528.171-.794a1.858 1.858 0 0 0-.339-.815 1.934 1.934 0 0 0-.653-.612 1.276 1.276 0 0 0-.821-.132c-.304.043-.64.193-1.01.45l-1.457 1.014 4.25 6.107-.828.577Zm1.082-5.315 3.822 1.901-.962.67-3.796-1.92.936-.651Zm15.078-6.09.18.877-3.572.734-.18-.877 3.571-.734Zm10.5 3.758L47.306 0l1.004.206.34 7.002.08.016L51.833.931l1.116.23.371 7.007.08.017 3.072-6.3 1.005.206-3.91 7.707-1.02-.21-.465-6.877-.064-.013-3.139 6.137-1.02-.21Zm7.234 1.725 3.286-7.661 4.622 1.984-.353.823-3.694-1.586-1.11 2.589 3.454 1.483-.353.823-3.455-1.483-1.117 2.603 3.755 1.612-.353.823-4.682-2.01Zm6.206 2.852 4.76-6.843 2.392 1.665c.477.332.812.688 1.007 1.068.196.379.274.758.233 1.14-.039.38-.175.736-.407 1.07-.205.294-.426.5-.664.62-.236.12-.477.176-.724.17a2.26 2.26 0 0 1-.716-.132l-.046.067c.2.16.359.38.477.66.119.28.163.596.132.944-.031.349-.172.704-.424 1.065a2.238 2.238 0 0 1-.877.762c-.347.166-.744.212-1.192.138-.448-.074-.94-.298-1.48-.673L61.3 13.202Zm1.34-.159 1.643 1.145c.54.376.998.539 1.37.488a1.23 1.23 0 0 0 .88-.53c.16-.23.25-.486.269-.764a1.56 1.56 0 0 0-.175-.825 1.928 1.928 0 0 0-.649-.72l-1.683-1.172-1.656 2.378Zm2.157-3.1 1.536 1.07c.25.173.508.28.777.322.27.043.527.017.77-.079.244-.095.45-.262.617-.503.209-.3.282-.628.218-.983-.062-.358-.32-.694-.774-1.01l-1.564-1.09-1.58 2.272Zm8.196 14.613-1.36-2.183 7.072-4.41 1.42 2.28c.428.686.653 1.362.674 2.027a3.279 3.279 0 0 1-.513 1.878c-.362.588-.91 1.11-1.642 1.566-.737.46-1.453.724-2.148.793a3.305 3.305 0 0 1-1.937-.385c-.596-.325-1.118-.847-1.566-1.566Zm-.067-1.8.792 1.271c.365.585.78 1 1.245 1.243.465.244.965.33 1.5.26.534-.071 1.089-.286 1.664-.645.571-.356 1.005-.756 1.3-1.2.299-.444.443-.92.433-1.43-.008-.51-.184-1.04-.528-1.593l-.853-1.368-5.553 3.462Zm2.644 6.376 7.815-2.895 1.747 4.718-.84.311-1.396-3.771-2.64.978L81.56 32l-.84.311-1.305-3.527-2.656.984 1.419 3.832-.84.311-1.77-4.779Zm10.506 5.585-6.56 3.51.015.096 7.309 1.384.16 1.046-8.701-1.764-.158-1.03 7.774-4.288.16 1.046Zm-7.403 8.257 8.323.423-.254 5.024-.895-.045.204-4.017-2.812-.142-.19 3.756-.895-.045.19-3.757-2.828-.143-.207 4.081-.894-.045.258-5.09Zm-.692 7.485 8.068 2.09-.253.977-7.201-1.865-.971 3.751-.867-.224 1.224-4.729Zm-.938 13.938c-.79-.387-1.402-.865-1.837-1.432-.435-.567-.686-1.175-.754-1.825-.068-.65.054-1.294.367-1.933.313-.638.748-1.13 1.303-1.473.555-.345 1.19-.518 1.905-.521.715-.003 1.467.19 2.256.576.789.387 1.4.865 1.836 1.432.435.567.686 1.176.755 1.826.068.65-.055 1.294-.368 1.932-.313.638-.747 1.13-1.303 1.474-.555.344-1.19.517-1.905.52-.714.003-1.466-.189-2.255-.576Zm.43-.877c.648.318 1.248.477 1.8.48.55.004 1.03-.122 1.44-.377.408-.254.723-.607.945-1.06.223-.453.31-.92.26-1.4-.049-.478-.243-.934-.583-1.37-.34-.433-.834-.809-1.482-1.127-.648-.317-1.248-.479-1.798-.483-.553-.002-1.033.124-1.44.377-.41.255-.726.61-.948 1.063a2.523 2.523 0 0 0-.259 1.397c.049.48.243.936.584 1.37.34.435.833.812 1.48 1.13Zm-4.621-.475 6.59 5.103-1.723 2.228c-.4.517-.821.867-1.262 1.051-.44.188-.88.239-1.317.153a2.927 2.927 0 0 1-1.24-.579 2.94 2.94 0 0 1-.874-1.058 2.24 2.24 0 0 1-.197-1.315c.068-.473.3-.966.697-1.479l1.235-1.596.708.548-1.216 1.57c-.274.355-.433.686-.476.996-.044.31 0 .593.134.85.134.262.333.495.597.699.264.204.538.338.822.4.283.065.567.034.853-.091.288-.124.57-.365.848-.723l1.086-1.404-5.883-4.554.618-.799Zm-4.675 5.66 5.429 6.326-3.816 3.277-.584-.68 3.051-2.62-1.834-2.136-2.853 2.45-.583-.68 2.853-2.45-1.845-2.15-3.1 2.662-.583-.679 3.865-3.32Zm-5.346 4.348 4.044 7.29-2.462 1.366c-.569.316-1.09.478-1.563.487a2.13 2.13 0 0 1-1.252-.344 2.804 2.804 0 0 1-.901-1.003 2.755 2.755 0 0 1-.37-1.289c-.01-.43.115-.84.373-1.231.258-.39.67-.74 1.235-1.054l1.992-1.106.442.797-1.964 1.09c-.389.217-.67.448-.844.693a1.24 1.24 0 0 0-.251.773c.008.271.093.553.255.845.162.292.358.517.588.674.23.158.498.23.804.215.306-.012.657-.127 1.05-.346l1.552-.86-3.61-6.507.882-.49Zm-1.613 5.179-3.61-2.279 1.025-.569 3.581 2.295-.996.553Zm-11.415 4.533-.09-.891 3.627-.37.09.892-3.627.369Z"/>
</svg>