<svg xmlns="http://www.w3.org/2000/svg" width="103" height="100" fill="none" viewBox="0 0 103 100">
  <path fill="#fff" d="M103.002 39.908C103.002 17.904 85.106 0 63.112 0a39.53 39.53 0 0 0-4.564.264 39.567 39.567 0 0 0-13.104 3.873A39.196 39.196 0 0 0 41.467 6.4a39.258 39.258 0 0 0-3.691 2.703 39.26 39.26 0 0 0-3.358 3.109 39.6 39.6 0 0 0-2.978 3.472A39.736 39.736 0 0 0 20.1 25.775 39.803 39.803 0 0 0 8.624 36.037a39.717 39.717 0 0 0-2.84 4.309 39.565 39.565 0 0 0-2.259 4.64 39.567 39.567 0 0 0-1.643 4.893A39.836 39.836 0 0 0 .547 60.095C.547 82.1 18.443 100 40.436 100c1.528 0 3.047-.088 4.567-.262a40.193 40.193 0 0 0 4.506-.785 39.091 39.091 0 0 0 4.386-1.298A39.686 39.686 0 0 0 65.773 90.9a39.623 39.623 0 0 0 6.336-6.584 39.808 39.808 0 0 0 11.338-10.091 39.871 39.871 0 0 0 14.317-14.57 39.535 39.535 0 0 0 2.259-4.64 39.373 39.373 0 0 0 1.643-4.894 39.84 39.84 0 0 0 1.336-10.213ZM29.928 17.792a40.03 40.03 0 0 0-2.663 4.634 39.94 39.94 0 0 0-4.896 2.097 39.061 39.061 0 0 1 7.559-6.731ZM63.102 78.84c-21.459 0-38.92-17.468-38.92-38.938 0-2.887.318-5.74.957-8.558a38.47 38.47 0 0 1 2.82-8.136 38.425 38.425 0 0 1 12.477-2.05c21.456 0 38.919 17.465 38.919 38.937a38.63 38.63 0 0 1-.95 8.56 38.476 38.476 0 0 1-2.819 8.14 38.467 38.467 0 0 1-12.473 2.05l-.011-.005Zm11.864-.836a38.874 38.874 0 0 1-3.525 5.572 38.532 38.532 0 0 1-9.482 4.001 38.459 38.459 0 0 1-10.198 1.357c-21.462 0-38.92-17.466-38.92-38.938a38.608 38.608 0 0 1 2.023-12.39 38.671 38.671 0 0 1 5.876-11.094 38.583 38.583 0 0 1 5.927-2.844A39.309 39.309 0 0 0 23.21 39.9c0 22.003 17.896 39.907 39.89 39.907a39.56 39.56 0 0 0 11.88-1.8l-.014-.003ZM80.31 60.09c0-22.004-17.896-39.908-39.89-39.908a39.55 39.55 0 0 0-11.864 1.803 39.478 39.478 0 0 1 3.526-5.572 38.464 38.464 0 0 1 9.482-3.998 38.353 38.353 0 0 1 10.198-1.357c21.459 0 38.92 17.466 38.92 38.935a38.737 38.737 0 0 1-4.506 18.179 38.684 38.684 0 0 1-3.393 5.307 38.576 38.576 0 0 1-5.927 2.843 39.275 39.275 0 0 0 3.467-16.227l-.013-.005ZM40.436 99.03c-21.462 0-38.92-17.468-38.92-38.935a38.95 38.95 0 0 1 1.152-9.391 38.748 38.748 0 0 1 3.384-8.838 38.844 38.844 0 0 1 12.538-13.98 39.465 39.465 0 0 0-4.998 10.558 39.465 39.465 0 0 0-1.704 11.555c0 22.003 17.893 39.907 39.886 39.907 3.141.003 6.237-.36 9.293-1.095a39.466 39.466 0 0 0 8.777-3.24 39.141 39.141 0 0 1-6.082 5.681 38.82 38.82 0 0 1-11.032 5.783 38.66 38.66 0 0 1-12.294 1.995Zm33.171-16.824a39.057 39.057 0 0 0 2.663-4.635 39.358 39.358 0 0 0 4.91-2.093 39.054 39.054 0 0 1-7.56 6.728h-.013Zm11.341-10.091a39.496 39.496 0 0 0 4.995-10.559A39.59 39.59 0 0 0 91.65 50c0-22.004-17.893-39.903-39.89-39.903a39.295 39.295 0 0 0-9.289 1.093 39.365 39.365 0 0 0-8.777 3.24A38.857 38.857 0 0 1 54.835 1.856 38.962 38.962 0 0 1 63.113.97c21.456 0 38.919 17.465 38.919 38.938 0 1.58-.096 3.16-.288 4.73a39.007 39.007 0 0 1-4.245 13.497 39.32 39.32 0 0 1-2.47 4.044 39.406 39.406 0 0 1-2.944 3.715 39.283 39.283 0 0 1-3.373 3.328 39.37 39.37 0 0 1-3.753 2.893h-.01Z"/>
</svg>
