<svg xmlns="http://www.w3.org/2000/svg" width="140px" height="140px" fill="none" viewBox="0 0 194 193"><path fill="#fff" d="M88.69 11.457V1.275h3.44c.799 0 1.451.144 1.959.432.51.285.888.671 1.133 1.159.245.487.368 1.03.368 1.63 0 .6-.123 1.145-.368 1.636-.242.49-.616.882-1.123 1.173-.508.289-1.157.433-1.95.433h-2.465V6.644h2.426c.547 0 .986-.094 1.317-.283a1.69 1.69 0 0 0 .721-.766c.153-.325.229-.691.229-1.099 0-.407-.076-.772-.229-1.093a1.632 1.632 0 0 0-.726-.756c-.334-.186-.778-.278-1.332-.278h-2.168v9.088H88.69Zm9.987-.387L99.859.957l1.224.143-1.055 9.027 4.701.55-.127 1.086-5.925-.693Zm10.37.872-1.258-.298 5.986-9.045 1.238.294 1.29 10.77-1.258-.299-.984-9.042-.077-.018-4.937 7.638Zm1.381-3.76 5.07 1.202-.252 1.064-5.07-1.201.252-1.065Zm10.68-4.276 1.327.483 1.028 5.432.112.04 4.279-3.5 1.327.483-5.505 4.367-1.435 3.943-1.158-.422 1.435-3.943-1.41-6.883Zm16.218 9.788a3.61 3.61 0 0 0 .017-.998 2.774 2.774 0 0 0-.256-.896 2.656 2.656 0 0 0-.543-.757 3.293 3.293 0 0 0-.84-.589 3.02 3.02 0 0 0-1.68-.32c-.581.056-1.138.29-1.671.701-.533.411-.997 1.01-1.393 1.799-.396.787-.598 1.518-.606 2.193-.009.674.142 1.264.452 1.768a3.17 3.17 0 0 0 1.31 1.181c.521.262 1.036.381 1.545.358a2.641 2.641 0 0 0 1.41-.482c.432-.298.788-.726 1.067-1.283l.302.24-2.736-1.374.49-.977 3.466 1.74-.491.978c-.376.749-.864 1.32-1.462 1.713a3.708 3.708 0 0 1-1.962.628c-.708.023-1.424-.147-2.147-.51-.805-.405-1.418-.95-1.838-1.635-.416-.684-.62-1.462-.609-2.332.013-.868.261-1.782.743-2.742.361-.72.783-1.319 1.264-1.796a4.809 4.809 0 0 1 1.567-1.06 4.042 4.042 0 0 1 1.73-.3 4.369 4.369 0 0 1 1.767.481c.48.241.89.539 1.232.892.346.352.616.742.81 1.169.198.425.315.876.351 1.35a3.98 3.98 0 0 1-.152 1.431l-1.137-.57Zm-.263 7.269 5.595-8.507 2.874 1.89c.665.438 1.136.91 1.413 1.418.279.504.391 1.02.338 1.549-.054.528-.246 1.042-.575 1.543-.33.502-.725.879-1.185 1.132-.46.253-.974.35-1.544.293-.567-.06-1.18-.306-1.84-.74l-2.326-1.53.612-.93 2.293 1.508c.454.299.864.473 1.228.522.367.05.693-.005.978-.166.289-.163.546-.415.77-.755.224-.34.356-.68.396-1.019a1.557 1.557 0 0 0-.222-.991c-.187-.325-.51-.64-.97-.942l-1.811-1.19-4.994 7.592-1.03-.677Zm6.518-1.188-.42 5.198-1.197-.787.453-5.176 1.164.765Zm11.893 7.975c-.69.823-1.435 1.41-2.235 1.76-.8.35-1.595.47-2.386.36-.791-.11-1.518-.443-2.184-1.002-.665-.558-1.12-1.217-1.365-1.976-.246-.76-.265-1.564-.06-2.412.206-.849.654-1.684 1.344-2.507.691-.823 1.436-1.409 2.236-1.759.799-.35 1.595-.47 2.385-.36.791.11 1.519.443 2.184 1.001.665.559 1.12 1.218 1.366 1.977.245.76.265 1.564.059 2.412-.206.849-.654 1.684-1.344 2.507Zm-.914-.766c.567-.676.932-1.34 1.096-1.995.166-.652.158-1.258-.025-1.818a3.085 3.085 0 0 0-.979-1.432 3.111 3.111 0 0 0-1.584-.719c-.581-.08-1.18.016-1.796.291-.613.277-1.203.754-1.77 1.429-.566.675-.933 1.34-1.099 1.991-.164.654-.156 1.26.025 1.819a3.1 3.1 0 0 0 .983 1.435 3.08 3.08 0 0 0 1.58.716c.583.083 1.182-.014 1.795-.292.616-.275 1.207-.75 1.774-1.425Zm10.951 3.141.846.897-4.903 4.626c-.507.477-1.071.785-1.694.921a3.447 3.447 0 0 1-1.882-.118c-.634-.218-1.225-.617-1.773-1.198-.548-.58-.912-1.194-1.093-1.84a3.484 3.484 0 0 1-.012-1.888c.175-.612.516-1.156 1.022-1.634l4.904-4.626.846.896-4.831 4.558a2.653 2.653 0 0 0-.741 1.15 2.357 2.357 0 0 0-.02 1.304c.12.447.375.876.764 1.289.389.412.803.691 1.242.838a2.31 2.31 0 0 0 1.303.055 2.658 2.658 0 0 0 1.191-.672l4.831-4.558Zm8.132 9.522-8.167 6.08-.713-.957 3.099-9.224-.059-.08-6.412 4.774-.737-.989 8.167-6.08.713.957-3.103 9.252.059.08 6.428-4.786.725.973Zm-5.145 10.106-1.571-2.721 8.818-5.091 1.64 2.841c.494.856.74 1.69.739 2.502a4.005 4.005 0 0 1-.704 2.272c-.467.702-1.157 1.317-2.07 1.844-.918.53-1.803.823-2.655.878a4.038 4.038 0 0 1-2.35-.55c-.714-.421-1.33-1.08-1.847-1.975Zm-.007-2.2.915 1.584c.42.73.91 1.252 1.468 1.569a3.003 3.003 0 0 0 1.82.379c.656-.065 1.342-.304 2.06-.719.712-.41 1.257-.88 1.637-1.41.382-.53.578-1.107.587-1.728.011-.623-.182-1.279-.58-1.968l-.984-1.705-6.923 3.998Zm8.199 17.642a.858.858 0 0 1 .071-.68.86.86 0 0 1 .529-.434.863.863 0 0 1 .681.071.862.862 0 0 1 .433.53.858.858 0 0 1-.071.68.864.864 0 0 1-.529.433.932.932 0 0 1-.872-.206.85.85 0 0 1-.242-.394Zm5.225 18.535 10.165-.592.2 3.435c.046.797-.06 1.458-.318 1.98a2.71 2.71 0 0 1-1.091 1.2 3.572 3.572 0 0 1-1.606.462 3.609 3.609 0 0 1-1.655-.273 2.739 2.739 0 0 1-1.236-1.053c-.317-.49-.499-1.13-.545-1.92l-.144-2.462 1.092-.064.141 2.422c.032.546.152.98.36 1.3.208.319.476.544.806.674.333.134.703.188 1.11.165a2.524 2.524 0 0 0 1.079-.292 1.63 1.63 0 0 0 .712-.769c.166-.345.233-.794.201-1.346l-.127-2.164-9.072.528-.072-1.23Zm.966 9.948 10.165.592-.072 1.231-9.073-.528-.275 4.725-1.092-.064.347-5.956Zm-.268 10.404.224-1.273 9.378 5.45-.221 1.253-10.676 1.914.224-1.273 8.97-1.508.013-.078-7.912-4.485Zm3.834 1.161-.905 5.131-1.077-.19.905-5.131 1.077.19Zm4.892 10.412-.405 1.353-5.363 1.342-.035.114 3.744 4.069-.405 1.352-4.68-5.241-4.019-1.203.353-1.182 4.02 1.204 6.79-1.808Zm-8.831 16.76c.351.032.684.019.998-.041.316-.055.609-.157.88-.308.269-.147.511-.342.724-.586.213-.244.393-.534.539-.872.239-.554.313-1.12.222-1.696-.09-.577-.356-1.12-.797-1.628-.442-.508-1.067-.936-1.877-1.286-.809-.349-1.551-.508-2.225-.477-.674.03-1.253.215-1.739.554a3.167 3.167 0 0 0-1.102 1.376c-.231.536-.321 1.057-.268 1.563.054.511.241.971.563 1.38.323.414.771.744 1.343.991l-.223.316 1.213-2.812 1.005.433-1.536 3.56-1.005-.433c-.77-.332-1.368-.785-1.796-1.359a3.72 3.72 0 0 1-.741-1.923c-.063-.706.065-1.43.386-2.172.357-.828.865-1.472 1.525-1.93.659-.456 1.423-.704 2.292-.745.868-.037 1.795.157 2.781.583.739.319 1.362.705 1.867 1.157.506.457.89.958 1.149 1.503.259.545.393 1.115.399 1.71a4.374 4.374 0 0 1-.377 1.792c-.213.493-.486.92-.819 1.282a4.03 4.03 0 0 1-2.447 1.305 4.007 4.007 0 0 1-1.438-.068l.504-1.169Zm-7.271.16 8.818 5.091-1.72 2.979c-.398.689-.842 1.187-1.333 1.493-.488.308-.996.45-1.527.427-.53-.023-1.055-.184-1.574-.484-.52-.3-.919-.672-1.198-1.117-.28-.444-.407-.952-.383-1.524.026-.57.237-1.196.631-1.88l1.392-2.411.965.557-1.372 2.377c-.272.471-.422.889-.45 1.256-.029.369.045.691.223.966.179.28.445.522.798.725.353.204.7.316 1.04.337.341.02.666-.073.977-.28.314-.205.608-.546.883-1.023l1.084-1.877-7.87-4.544.616-1.068Zm1.565 6.438-5.214-.117.716-1.24 5.194.151-.696 1.206Zm-7.27 12.335c-.862-.641-1.49-1.351-1.886-2.129-.396-.778-.562-1.565-.499-2.36.064-.796.355-1.542.873-2.239.519-.696 1.15-1.189 1.894-1.478.744-.289 1.546-.356 2.405-.2.859.157 1.719.555 2.58 1.196.862.642 1.49 1.351 1.886 2.13.396.778.562 1.565.499 2.36-.064.796-.355 1.542-.873 2.239-.519.696-1.15 1.189-1.894 1.478-.744.289-1.546.355-2.405.199-.859-.156-1.719-.554-2.58-1.196Zm.712-.957c.707.527 1.392.853 2.055.978.661.129 1.265.085 1.814-.13a3.092 3.092 0 0 0 1.373-1.061 3.11 3.11 0 0 0 .625-1.623c.047-.585-.085-1.177-.395-1.776-.312-.596-.822-1.157-1.529-1.683-.707-.527-1.391-.854-2.052-.983-.663-.125-1.267-.082-1.814.131a3.104 3.104 0 0 0-1.375 1.065 3.072 3.072 0 0 0-.623 1.619c-.049.587.083 1.179.395 1.775.31.599.819 1.162 1.526 1.688Zm-2.498 11.115-.846.897-4.904-4.626c-.506-.478-.846-1.023-1.018-1.637a3.445 3.445 0 0 1 .008-1.886c.181-.645.545-1.258 1.093-1.839.548-.581 1.139-.981 1.773-1.198a3.48 3.48 0 0 1 1.885-.122c.621.139 1.184.447 1.691.925l4.903 4.626-.846.897-4.831-4.558a2.66 2.66 0 0 0-1.191-.672 2.356 2.356 0 0 0-1.303.055c-.439.147-.853.426-1.242.838-.389.413-.644.842-.764 1.289a2.31 2.31 0 0 0 .02 1.304c.132.425.379.808.741 1.149l4.831 4.558Zm-9.035 8.672-6.545-7.8.914-.767 9.389 2.558.076-.064-5.139-6.124.945-.792 6.545 7.799-.914.767-9.417-2.56-.077.064 5.152 6.139-.929.78Zm-10.386-4.547 2.625-1.726 5.595 8.506-2.741 1.803c-.826.543-1.644.837-2.455.883a4.01 4.01 0 0 1-2.309-.57c-.728-.426-1.382-1.079-1.961-1.959-.583-.887-.926-1.753-1.032-2.601a4.045 4.045 0 0 1 .412-2.377c.38-.738 1.002-1.391 1.866-1.959Zm2.196-.135-1.529 1.005c-.703.463-1.197.982-1.481 1.557a3.01 3.01 0 0 0-.272 1.84c.103.65.382 1.322.837 2.014.452.687.953 1.204 1.503 1.552a2.966 2.966 0 0 0 1.759.485c.623-.024 1.266-.255 1.931-.692l1.645-1.082-4.393-6.679Zm-17.136 9.21a.86.86 0 0 1 .683.031.86.86 0 0 1 .464.504.86.86 0 0 1-.032.683.861.861 0 0 1-.503.464.864.864 0 0 1-.683-.032.86.86 0 0 1-.464-.503.843.843 0 0 1-.036-.463.927.927 0 0 1 .191-.419.85.85 0 0 1 .38-.265Zm-18.2 6.295 1.182 10.113-3.417.399c-.794.093-1.459.025-1.996-.202a2.717 2.717 0 0 1-1.261-1.019 3.57 3.57 0 0 1-.554-1.577 3.607 3.607 0 0 1 .175-1.667c.184-.516.51-.948.98-1.296.47-.346 1.099-.564 1.886-.656l2.449-.286.127 1.086-2.41.282c-.543.063-.968.208-1.276.434a1.694 1.694 0 0 0-.627.844c-.114.34-.147.713-.099 1.118.047.405.165.758.354 1.06.185.302.455.524.808.666.354.146.806.186 1.356.122l2.153-.252-1.055-9.026 1.225-.143Zm-9.876 1.543v10.181h-1.233v-9.088h-4.732v-1.093h5.965Zm-10.402.338 1.284.15-4.895 9.679-1.265-.148-2.53-10.547 1.283.15 2.027 8.866.08.009 4.016-8.159Zm-.936 3.895-5.175-.605.127-1.087 5.175.605-.127 1.087Zm-10.109 5.486-1.374-.325-1.652-5.276-.116-.028-3.844 3.974-1.374-.326 4.96-4.976.968-4.083 1.2.284-.968 4.083 2.2 6.673Zm-17.246-7.839c-.011.352.022.683.099.994.073.312.193.599.359.86.162.261.372.49.627.689.256.199.557.361.902.487a3.023 3.023 0 0 0 1.707.124c.57-.124 1.096-.421 1.578-.891.481-.471.873-1.12 1.174-1.948.302-.829.418-1.578.348-2.249s-.288-1.239-.655-1.704a3.173 3.173 0 0 0-1.438-1.021c-.548-.199-1.073-.258-1.576-.177a2.646 2.646 0 0 0-1.345.643c-.394.347-.698.813-.91 1.399l-.329-.204 2.878 1.047-.374 1.028-3.644-1.327.374-1.027c.287-.788.705-1.412 1.253-1.872a3.714 3.714 0 0 1 1.876-.852c.701-.104 1.432-.018 2.192.258.847.309 1.519.779 2.015 1.411.493.631.785 1.379.876 2.245.088.864-.052 1.801-.42 2.81-.275.757-.624 1.4-1.046 1.931a4.827 4.827 0 0 1-1.434 1.235 4.06 4.06 0 0 1-1.684.498 4.377 4.377 0 0 1-1.81-.273 4.53 4.53 0 0 1-1.328-.742 4.039 4.039 0 0 1-1.445-2.368 3.993 3.993 0 0 1-.016-1.439l1.196.435Zm-.582-7.25-4.57 9.099-3.074-1.544c-.71-.357-1.233-.772-1.567-1.244-.336-.468-.508-.968-.516-1.499-.008-.531.123-1.064.392-1.6.27-.536.618-.957 1.045-1.261.428-.305.928-.462 1.5-.471.57-.006 1.208.167 1.913.521l2.488 1.25-.5.995-2.452-1.232c-.486-.244-.912-.369-1.28-.375-.37-.008-.688.084-.952.278-.269.195-.495.475-.678.839a2.364 2.364 0 0 0-.275 1.058c0 .341.111.661.336.959.224.301.581.575 1.073.822l1.937.973 4.079-8.121 1.101.553Zm-6.335 1.937-.187-5.212 1.28.642.15 5.194-1.243-.624ZM46.96 172.57c.59-.897 1.263-1.566 2.017-2.007.753-.44 1.53-.652 2.327-.635.798.018 1.56.265 2.286.742.725.477 1.254 1.079 1.586 1.805.331.726.444 1.522.338 2.389-.105.866-.453 1.748-1.043 2.645-.59.897-1.262 1.566-2.016 2.007-.754.44-1.53.652-2.328.635-.798-.017-1.56-.265-2.285-.742-.726-.477-1.255-1.078-1.586-1.804-.332-.726-.445-1.523-.34-2.389.107-.867.455-1.749 1.045-2.646Zm.998.656c-.485.736-.77 1.439-.857 2.108-.09.667-.011 1.268.236 1.803.244.534.623.97 1.138 1.309a3.115 3.115 0 0 0 1.657.53c.587.013 1.17-.153 1.75-.498.577-.346 1.107-.888 1.592-1.624.484-.737.771-1.439.86-2.106.088-.669.009-1.27-.235-1.803a3.098 3.098 0 0 0-1.143-1.311 3.08 3.08 0 0 0-1.653-.528c-.589-.015-1.172.151-1.749.498-.58.344-1.112.885-1.596 1.622Zm-11.243-1.85-.945-.792 4.334-5.164c.447-.534.972-.904 1.575-1.112a3.434 3.434 0 0 1 1.883-.101c.654.142 1.288.47 1.9.984.612.513 1.045 1.08 1.299 1.7.252.622.329 1.247.23 1.875-.102.627-.377 1.208-.824 1.741l-4.334 5.164-.944-.792 4.27-5.088c.319-.381.52-.79.601-1.228a2.35 2.35 0 0 0-.131-1.298c-.172-.429-.475-.826-.909-1.191-.434-.364-.877-.593-1.33-.688a2.31 2.31 0 0 0-1.301.096 2.657 2.657 0 0 0-1.105.806l-4.27 5.088Zm-9.183-8.513 7.406-6.987.82.867-2.008 9.522.068.072 5.815-5.486.846.897-7.406 6.987-.819-.867 2.009-9.55-.069-.073-5.829 5.5-.832-.882Zm3.936-10.634 1.876 2.52-8.167 6.08-1.96-2.632c-.589-.792-.93-1.592-1.023-2.399a4.004 4.004 0 0 1 .435-2.338c.383-.752.997-1.442 1.842-2.071.85-.634 1.696-1.028 2.536-1.182a4.04 4.04 0 0 1 2.397.273c.759.336 1.447.919 2.064 1.749Zm.263 2.184-1.093-1.467c-.502-.676-1.05-1.138-1.64-1.388a3.004 3.004 0 0 0-1.852-.165c-.644.14-1.298.458-1.962.953-.66.49-1.147 1.021-1.463 1.59a2.972 2.972 0 0 0-.382 1.785c.06.62.329 1.249.804 1.887l1.175 1.579 6.413-4.774ZM21.54 137.842a.86.86 0 0 1 .009.684.86.86 0 0 1-.476.492.86.86 0 0 1-.684.008.862.862 0 0 1-.492-.475.863.863 0 0 1-.008-.685.866.866 0 0 1 .475-.492.849.849 0 0 1 .46-.063c.157.02.3.075.43.167.125.09.22.211.286.364Zm-9.456-27.572-10.165.592-.2-3.435c-.046-.797.06-1.458.318-1.981a2.712 2.712 0 0 1 1.09-1.199 3.579 3.579 0 0 1 1.607-.462 3.609 3.609 0 0 1 1.654.273c.504.213.916.564 1.237 1.053.317.49.499 1.13.545 1.92l.143 2.462-1.091.064-.142-2.422c-.031-.546-.151-.979-.359-1.299a1.688 1.688 0 0 0-.806-.675 2.57 2.57 0 0 0-1.11-.165 2.525 2.525 0 0 0-1.079.292c-.312.168-.55.424-.712.769-.166.345-.233.794-.2 1.346l.125 2.164 9.073-.528.072 1.231Zm-.966-9.948L.953 99.73l.072-1.23 9.072.528.276-4.725 1.092.063-.347 5.956Zm.268-10.404-.225 1.273-9.378-5.45.221-1.253 10.677-1.914-.225 1.273-8.969 1.508-.014.078 7.913 4.485Zm-3.834-1.16.905-5.132 1.077.19-.905 5.131-1.077-.19ZM2.66 78.345l.405-1.353 5.363-1.342.034-.114-3.743-4.068.405-1.353 4.68 5.241 4.02 1.204-.355 1.18-4.02-1.203-6.789 1.808Zm8.83-16.76a3.596 3.596 0 0 0-.997.04c-.316.056-.61.158-.88.309-.27.147-.51.343-.724.586a3.288 3.288 0 0 0-.539.872 3.021 3.021 0 0 0-.223 1.696c.09.577.357 1.12.798 1.628.442.508 1.067.937 1.877 1.286s1.55.508 2.225.478c.673-.031 1.253-.216 1.739-.555.485-.34.853-.798 1.102-1.376.231-.536.32-1.057.268-1.563a2.645 2.645 0 0 0-.563-1.38c-.323-.414-.771-.744-1.343-.991l.223-.316-1.213 2.813-1.005-.434 1.536-3.56 1.004.433c.77.332 1.369.785 1.796 1.36.429.57.676 1.211.741 1.922.064.706-.064 1.43-.385 2.173-.357.827-.865 1.47-1.525 1.93-.659.455-1.423.703-2.292.744-.868.037-1.795-.157-2.781-.583-.74-.319-1.362-.704-1.867-1.157a4.813 4.813 0 0 1-1.15-1.503 4.044 4.044 0 0 1-.399-1.71 4.364 4.364 0 0 1 .378-1.792c.213-.492.485-.92.818-1.282a4.03 4.03 0 0 1 2.448-1.305 3.995 3.995 0 0 1 1.438.068l-.505 1.169Zm7.272-.16-8.818-5.091 1.72-2.98c.398-.688.842-1.186 1.333-1.492.487-.308.996-.45 1.527-.427.53.023 1.055.184 1.574.484.52.3.92.672 1.198 1.117.28.444.407.952.383 1.524-.027.57-.237 1.197-.632 1.88l-1.392 2.41-.964-.556 1.372-2.377c.272-.47.422-.89.45-1.256.03-.37-.045-.691-.223-.966-.18-.28-.445-.522-.798-.725a2.362 2.362 0 0 0-1.04-.337 1.56 1.56 0 0 0-.977.28c-.314.206-.608.547-.883 1.023l-1.084 1.877 7.87 4.544-.616 1.068Zm-1.565-6.438 5.214.117-.716 1.24-5.194-.151.696-1.206Zm7.27-12.335c.861.64 1.49 1.35 1.886 2.129.396.778.562 1.565.498 2.36-.063.796-.354 1.542-.873 2.239-.518.696-1.15 1.19-1.894 1.478-.744.29-1.545.356-2.404.2-.859-.156-1.72-.555-2.58-1.196-.862-.642-1.49-1.351-1.886-2.13-.396-.778-.562-1.565-.499-2.36.064-.796.355-1.542.873-2.239.519-.696 1.15-1.189 1.894-1.478.744-.289 1.546-.355 2.405-.2.858.157 1.719.555 2.58 1.197Zm-.712.957c-.708-.527-1.392-.853-2.055-.978-.66-.129-1.266-.085-1.814.13a3.08 3.08 0 0 0-1.373 1.061 3.107 3.107 0 0 0-.625 1.623c-.047.585.084 1.177.395 1.776.312.596.822 1.157 1.529 1.684.707.526 1.391.853 2.052.982.662.125 1.267.082 1.814-.131a3.106 3.106 0 0 0 1.375-1.065 3.08 3.08 0 0 0 .623-1.619c.049-.587-.083-1.18-.395-1.775-.31-.6-.82-1.162-1.526-1.688Zm2.498-11.115.846-.897 4.904 4.626c.506.478.845 1.023 1.018 1.638a3.45 3.45 0 0 1-.008 1.885c-.181.645-.545 1.258-1.093 1.84-.549.58-1.14.98-1.773 1.197a3.481 3.481 0 0 1-1.885.122c-.621-.139-1.184-.447-1.69-.925l-4.904-4.626.846-.897 4.831 4.558c.362.341.759.565 1.19.672.43.105.865.087 1.304-.055.439-.147.853-.426 1.242-.838s.643-.842.764-1.289a2.31 2.31 0 0 0-.02-1.304 2.653 2.653 0 0 0-.74-1.15l-4.832-4.557Zm9.035-8.672 6.545 7.8-.914.767-9.389-2.558-.076.064 5.139 6.124-.945.793-6.545-7.8.914-.767 9.417 2.56.076-.064-5.151-6.14.93-.779Zm10.386 4.547-2.625 1.727-5.595-8.507 2.741-1.803c.825-.543 1.644-.837 2.455-.883a4.003 4.003 0 0 1 2.309.57c.728.426 1.381 1.079 1.96 1.96.583.886.927 1.752 1.032 2.6a4.039 4.039 0 0 1-.412 2.377c-.38.738-1.001 1.39-1.865 1.959Zm-2.196.135 1.529-1.005c.703-.463 1.197-.982 1.48-1.557a3.003 3.003 0 0 0 .273-1.84c-.103-.65-.382-1.322-.837-2.014-.452-.687-.953-1.204-1.503-1.552a2.97 2.97 0 0 0-1.76-.485c-.622.024-1.266.255-1.93.692l-1.645 1.082 4.393 6.68Zm17.136-9.21a.861.861 0 0 1-.684-.031.861.861 0 0 1-.463-.504.861.861 0 0 1 .032-.683.862.862 0 0 1 .503-.463.862.862 0 0 1 .683.031c.225.105.38.273.464.503a.928.928 0 0 1-.155.882.853.853 0 0 1-.38.265Z" /></svg>