<svg xmlns="http://www.w3.org/2000/svg" width="100" height="100" fill="none" viewBox="0 0 100 100">
  <path fill="#fff" d="M50.003 100c-27.571 0-50-22.43-50-49.999C.004 22.433 22.433 0 50.004 0 77.573 0 100 22.43 100 50.001 100 77.572 77.57 100 50.002 100Zm0-99.018C22.976.982.983 22.975.983 50.002c0 27.028 21.993 49.016 49.02 49.016 27.029 0 49.017-21.988 49.017-49.017 0-27.026-21.988-49.02-49.017-49.02Zm0 88.917c-22.001 0-39.896-17.9-39.896-39.898 0-21.998 17.895-39.895 39.896-39.895 22 0 39.897 17.894 39.897 39.895C89.9 72.002 72 89.9 50.003 89.9Zm0-78.811c-21.457 0-38.914 17.457-38.914 38.913 0 21.46 17.457 38.917 38.914 38.917 21.459 0 38.916-17.46 38.916-38.917 0-21.454-17.46-38.913-38.916-38.913Zm0 68.705a29.551 29.551 0 0 1-5.812-.573 29.35 29.35 0 0 1-5.588-1.695 29.87 29.87 0 0 1-7.502-4.494 29.66 29.66 0 0 1-4.13-4.13 29.774 29.774 0 0 1-4.494-7.5 29.348 29.348 0 0 1-1.696-5.588 29.592 29.592 0 0 1-.43-8.734 29.324 29.324 0 0 1 1.138-5.728 30.37 30.37 0 0 1 .985-2.752 29.922 29.922 0 0 1 6.46-9.666 29.714 29.714 0 0 1 4.515-3.706 29.006 29.006 0 0 1 2.508-1.502c.86-.461 1.742-.878 2.643-1.25a29.345 29.345 0 0 1 5.588-1.695A29.547 29.547 0 0 1 50 20.207c.976 0 1.95.047 2.922.143a29.353 29.353 0 0 1 5.728 1.138c.933.284 1.852.612 2.753.984a29.864 29.864 0 0 1 5.15 2.755 29.78 29.78 0 0 1 11.952 33.42 29.875 29.875 0 0 1-3.742 7.898 29.421 29.421 0 0 1-3.705 4.512 29.421 29.421 0 0 1-4.513 3.705 29.777 29.777 0 0 1-7.898 3.742c-.932.284-1.877.521-2.835.711a29.506 29.506 0 0 1-5.81.578Zm0-58.602c-.943 0-1.886.044-2.823.138-.94.091-1.872.23-2.797.414a29.038 29.038 0 0 0-5.406 1.641 28.894 28.894 0 0 0-9.348 6.244 28.434 28.434 0 0 0-3.583 4.367 28.562 28.562 0 0 0-2.664 4.981 28.661 28.661 0 0 0-2.054 8.203c-.094.937-.138 1.88-.138 2.822 0 .946.044 1.886.138 2.826.09.94.229 1.872.414 2.796.185.925.414 1.841.687 2.742.274.904.591 1.792.953 2.664a29.22 29.22 0 0 0 2.661 4.981 28.891 28.891 0 0 0 10.374 9.403 28.952 28.952 0 0 0 7.964 2.85c.924.181 1.856.32 2.796.413.94.091 1.88.138 2.823.138.945 0 1.885-.047 2.825-.138a28.849 28.849 0 0 0 19.449-10.395 29.313 29.313 0 0 0 1.685-2.27 29.331 29.331 0 0 0 1.453-2.427c.445-.831.846-1.683 1.208-2.555a29.143 29.143 0 0 0 1.64-5.406 28.875 28.875 0 0 0 .553-5.622 28.833 28.833 0 0 0-15.233-25.4 28.602 28.602 0 0 0-5.216-2.164 28.926 28.926 0 0 0-8.361-1.247Zm0 48.499a19.15 19.15 0 0 1-1.93-.096 19.773 19.773 0 0 1-1.911-.282 20.137 20.137 0 0 1-1.875-.471 19.369 19.369 0 0 1-1.818-.651c-.596-.245-1.18-.52-1.747-.825a19.731 19.731 0 0 1-4.643-3.442 19.345 19.345 0 0 1-1.297-1.433 19.099 19.099 0 0 1-1.15-1.552 19.388 19.388 0 0 1-1.82-3.404 19.695 19.695 0 0 1 7.249-23.906 20.489 20.489 0 0 1 1.658-.992A19.633 19.633 0 0 1 50 30.31c.647 0 1.29.03 1.933.096.64.062 1.279.156 1.911.28.63.128 1.256.284 1.873.472a19.689 19.689 0 0 1 13.126 13.127c.188.617.344 1.242.469 1.874.128.633.221 1.271.284 1.912.065.643.096 1.286.096 1.93a19.78 19.78 0 0 1-3.325 10.934 20.63 20.63 0 0 1-1.151 1.549 19.302 19.302 0 0 1-2.73 2.729c-.496.408-1.015.791-1.548 1.15a19.792 19.792 0 0 1-5.221 2.471 19.79 19.79 0 0 1-3.783.758c-.642.063-1.285.094-1.93.097Zm0-38.396a18.77 18.77 0 0 0-8.82 2.209 18.52 18.52 0 0 0-1.573.945c-.51.338-1.002.703-1.476 1.094a18.51 18.51 0 0 0-3.687 4.067c-.342.51-.654 1.034-.943 1.575a18.6 18.6 0 0 0-2.12 6.984 18.827 18.827 0 0 0 .714 7.265c.18.586.385 1.161.62 1.73a18.484 18.484 0 0 0 1.728 3.233c.342.508.706 1 1.094 1.474a18.425 18.425 0 0 0 2.594 2.593 18.538 18.538 0 0 0 3.05 2.036 18.506 18.506 0 0 0 3.387 1.404 18.59 18.59 0 0 0 3.596.716 18.772 18.772 0 0 0 3.669 0 18.583 18.583 0 0 0 5.325-1.333c.565-.234 1.12-.497 1.659-.786a17.868 17.868 0 0 0 1.575-.943 19.033 19.033 0 0 0 2.836-2.325 19.078 19.078 0 0 0 2.325-2.836c.341-.51.656-1.033.943-1.575a18.479 18.479 0 0 0 1.403-3.388 18.211 18.211 0 0 0 .716-3.596 18.754 18.754 0 0 0-.27-5.484 19.963 19.963 0 0 0-.448-1.778 19.493 19.493 0 0 0-.62-1.73 18.916 18.916 0 0 0-1.73-3.23 18.492 18.492 0 0 0-2.325-2.833 19.606 19.606 0 0 0-1.359-1.235 19.446 19.446 0 0 0-1.474-1.094 19.163 19.163 0 0 0-3.234-1.729c-.565-.234-1.14-.44-1.726-.62a19.772 19.772 0 0 0-1.781-.448 18.73 18.73 0 0 0-3.648-.362Zm0 28.292a9.585 9.585 0 0 1-6.776-2.807 9.536 9.536 0 0 1-2.078-3.11 9.573 9.573 0 0 1-.73-3.669c.001-.626.06-1.251.183-1.868a9.614 9.614 0 0 1 4.076-6.099 9.607 9.607 0 0 1 3.456-1.432 9.606 9.606 0 0 1 1.869-.182c.63 0 1.252.06 1.87.182a9.575 9.575 0 0 1 3.455 1.432 9.637 9.637 0 0 1 2.646 2.643 9.599 9.599 0 0 1 1.43 7.195 9.602 9.602 0 0 1-7.532 7.53 9.59 9.59 0 0 1-1.87.185Zm0-18.186a8.545 8.545 0 0 0-3.291.654 8.65 8.65 0 0 0-2.792 1.864 8.862 8.862 0 0 0-1.07 1.305 8.675 8.675 0 0 0-1.284 3.101 8.623 8.623 0 0 0 2.354 7.763 8.668 8.668 0 0 0 4.406 2.354 8.641 8.641 0 0 0 4.97-.49 8.677 8.677 0 0 0 2.791-1.864 8.688 8.688 0 0 0 1.865-2.792 8.62 8.62 0 0 0 .487-4.971 8.579 8.579 0 0 0-3.659-5.473 8.58 8.58 0 0 0-3.098-1.284 8.464 8.464 0 0 0-1.68-.167Z"/>
</svg>
