<svg xmlns="http://www.w3.org/2000/svg" width="101" height="100" fill="none" viewBox="0 0 101 100">
  <path fill="#fff" d="M52.937 50.488h47.569a.45.45 0 0 0 .45-.3.451.451 0 0 0-.102-.532L52.117.146a.476.476 0 0 0-.35-.146H1.072a.456.456 0 0 0-.453.301.455.455 0 0 0 .1.531l47.92 48.677H1.072a.45.45 0 0 0-.456.301.451.451 0 0 0 .102.534l48.74 49.51a.47.47 0 0 0 .35.146h50.698a.45.45 0 0 0 .45-.301.451.451 0 0 0-.102-.531l-47.917-48.68ZM2.242.98h49.313l47.781 48.53H50.023L2.242.98Zm47.773 98.042L2.242 50.488h49.313l47.781 48.533h-49.32Z"/>
</svg>
