<svg xmlns="http://www.w3.org/2000/svg" width="102" height="102" fill="none" viewBox="0 0 102 102">
  <path stroke="#fff" d="M51 101c27.614 0 50-22.386 50-50S78.614 1 51 1m0 100C23.386 101 1 78.614 1 51S23.386 1 51 1m0 100c13.692 0 24.792-22.386 24.792-50S64.692 1 51 1m0 100c-13.692 0-24.792-22.386-24.792-50S37.308 1 51 1m0 100V1.417M5.447 32.162c7.86 3.247 25.3 5.505 45.553 5.505 20.253 0 37.694-2.258 45.553-5.505M23.708 9.543c4.493 2.16 15.714 3.662 27.292 3.662 11.578 0 22.59-1.502 27.083-3.662M23.5 92.37c4.493-2.16 15.922-3.663 27.5-3.663s23.111 1.503 27.604 3.663M4.438 67.963c7.859-3.247 26.31-5.505 46.562-5.505 20.253 0 39.016 2.258 46.875 5.505"/>
</svg>
