<svg xmlns="http://www.w3.org/2000/svg" width="242" height="242" fill="none" viewBox="0 0 242 242">
  <path stroke="#fff" d="M121 241c66.274 0 120-53.726 120-120S187.274 1 121 1m0 240C54.726 241 1 187.274 1 121S54.726 1 121 1m0 240c32.861 0 59.5-53.726 59.5-120S153.861 1 121 1m0 240c-32.86 0-59.5-53.726-59.5-120S88.14 1 121 1m0 240V2M11.674 75.79C30.536 83.58 72.394 89 121 89c48.607 0 90.464-5.419 109.326-13.21M55.5 21.5c10.783 5.184 37.712 8.79 65.5 8.79 27.788 0 54.217-3.606 65-8.79M55 220.29c10.783-5.184 38.212-8.79 66-8.79 27.788 0 55.467 3.606 66.25 8.79m-178-58.58C28.112 153.919 72.393 148.5 121 148.5s93.638 5.419 112.5 13.21"/>
</svg>