<svg xmlns="http://www.w3.org/2000/svg" width="289" height="289" fill="none" viewBox="0 0 289 289">
  <path fill="#fff" d="M289 144.5c0 79.805-64.695 144.5-144.5 144.5S0 224.305 0 144.5 64.695 0 144.5 0 289 64.695 289 144.5Z"/>
  <path fill="#000" fill-rule="evenodd" d="M144.5 277c73.178 0 132.5-59.322 132.5-132.5S217.678 12 144.5 12 12 71.322 12 144.5 71.322 277 144.5 277Zm0 12c79.805 0 144.5-64.695 144.5-144.5S224.305 0 144.5 0 0 64.695 0 144.5 64.695 289 144.5 289Z" clip-rule="evenodd"/>
  <path fill="#000" fill-rule="evenodd" d="M155.801 141.06c2.445 9.114 10.402 14.676 10.396 14.686-.006.011 4.35 4.211 4.35 4.211-.042.074-5.816-1.673-5.822-1.662-.005.01-8.803-4.097-17.916-1.66-8.973 2.4-14.248 10.272-14.24 10.276-.003.005-4.252 4.422-4.218 4.364-.019-.062 1.667-5.83 1.67-5.835.005.003 4.184-8.501 1.779-17.47-2.449-9.113-10.402-14.677-10.396-14.687.006-.01-4.338-4.203-4.351-4.211-.007-.004 5.817 1.673 5.823 1.663.005-.01 8.798 4.098 17.916 1.659 8.97-2.401 14.245-10.272 14.24-10.275.003-.006 4.177-4.387 4.218-4.364.038.022-1.667 5.83-1.67 5.835-.007-.005-4.187 8.499-1.779 17.47Z" clip-rule="evenodd"/>
  <path fill="#000" d="M229.239 211.98c.949.527 1.93.597 2.944.21 1.014-.388 1.907-1.116 2.678-2.185.564-.782.931-1.557 1.101-2.326.166-.763.145-1.468-.061-2.115a3.088 3.088 0 0 0-1.161-1.571c-.472-.34-.958-.521-1.459-.541a3.667 3.667 0 0 0-1.471.276 7.72 7.72 0 0 0-1.352.728c-.42.292-.791.57-1.114.836l-1.777 1.444c-.452.373-.988.764-1.607 1.174a8.706 8.706 0 0 1-2.047 1.001 5.473 5.473 0 0 1-2.33.286c-.814-.072-1.635-.406-2.463-1.003-.955-.689-1.637-1.561-2.047-2.617-.413-1.05-.503-2.216-.269-3.498.23-1.276.834-2.592 1.813-3.949.912-1.264 1.906-2.212 2.982-2.843 1.072-.625 2.163-.939 3.275-.941 1.108.004 2.17.32 3.185.948l-1.592 2.207c-.708-.424-1.422-.598-2.141-.522-.718.085-1.4.353-2.049.803a7.504 7.504 0 0 0-1.728 1.742c-.589.816-.986 1.644-1.19 2.485-.198.844-.195 1.628.008 2.352.21.728.636 1.324 1.28 1.788.587.423 1.182.604 1.787.542.604-.063 1.214-.278 1.83-.647a16.83 16.83 0 0 0 1.854-1.297l2.188-1.725c1.392-1.093 2.746-1.777 4.063-2.05 1.316-.274 2.57.018 3.76.877.989.713 1.659 1.603 2.009 2.668.352 1.075.405 2.214.158 3.417-.246 1.213-.775 2.382-1.587 3.509-.821 1.138-1.755 2.002-2.802 2.593-1.041.595-2.099.898-3.174.909a5.081 5.081 0 0 1-2.986-.896l1.492-2.069Zm-18.178-3.84 2.035-1.87 8.851 21.445-2.004 1.841-20.626-10.626 2.035-1.871 17.199 9.097.125-.115-7.615-17.901Zm5.005 6.954-8.205 7.539-1.583-1.723 8.205-7.538 1.583 1.722Zm-14.286 27.632-11.209-18.673 2.261-1.356 11.209 18.672-2.261 1.357Zm-25.577-11.916 6.341-2.226 7.221 20.545-6.622 2.325c-1.993.7-3.843.887-5.55.562-1.705-.318-3.204-1.11-4.498-2.376-1.292-1.26-2.312-2.953-3.059-5.08-.752-2.14-1.019-4.116-.799-5.929.222-1.806.916-3.379 2.083-4.72 1.169-1.335 2.796-2.369 4.883-3.101Zm4.628.854-3.692 1.296c-1.698.597-2.991 1.419-3.878 2.466-.886 1.048-1.391 2.273-1.514 3.676s.109 2.941.697 4.613c.583 1.659 1.355 2.991 2.318 3.998.965 1.014 2.098 1.653 3.401 1.917 1.305.27 2.76.124 4.365-.44l3.973-1.394-5.67-16.132Zm-17.983 3.141 2.74-.372-4.987 22.653-2.697.366-10.861-20.501 2.74-.372 8.921 17.288.168-.023 3.976-19.039Zm.136 8.566-11.043 1.499-.315-2.317 11.043-1.5.315 2.318Zm-37.962-8.836-5.811 20.984-2.542-.704 5.187-18.73-9.757-2.704.625-2.254 12.298 3.408Zm-16.988-5.386 2.462 1.26-17.037 15.74-2.424-1.24 2.798-23.026 2.462 1.259-2.555 19.282.152.077 14.142-13.352Zm-4.782 7.107-9.922-5.077 1.065-2.082 9.922 5.076-1.065 2.083Zm-32.836-14.091 2.058 1.649a5.48 5.48 0 0 0-.611 2.072c-.06.687.004 1.356.191 2.006a5.99 5.99 0 0 0 .86 1.834 7.299 7.299 0 0 0 1.441 1.536c1.03.824 2.17 1.311 3.422 1.461 1.247.145 2.522-.091 3.825-.709 1.298-.621 2.537-1.668 3.716-3.139 1.18-1.471 1.93-2.908 2.255-4.31.319-1.407.272-2.703-.141-3.887-.42-1.19-1.143-2.197-2.172-3.021a7.249 7.249 0 0 0-1.813-1.072 6.118 6.118 0 0 0-1.971-.448 5.618 5.618 0 0 0-2.006.258 5.586 5.586 0 0 0-1.89 1.048l-2.058-1.649c.851-.745 1.756-1.295 2.715-1.653a8.173 8.173 0 0 1 2.93-.527 8.58 8.58 0 0 1 2.921.556 9.797 9.797 0 0 1 2.714 1.562c1.45 1.162 2.455 2.549 3.017 4.161.56 1.612.642 3.33.243 5.154-.398 1.824-1.316 3.632-2.752 5.424-1.436 1.792-3.001 3.081-4.695 3.868-1.693.786-3.388 1.081-5.084.884-1.696-.196-3.269-.875-4.718-2.037a9.803 9.803 0 0 1-2.116-2.308 8.454 8.454 0 0 1-1.172-2.738 8.02 8.02 0 0 1-.131-2.966c.136-1.008.476-2.011 1.022-3.009Zm8.419-12.795-16.76 13.9-1.684-2.03 7.463-6.189-7.415-8.938-7.464 6.19-1.684-2.029 16.76-13.9 1.684 2.029-7.496 6.217 7.416 8.937 7.496-6.217 1.684 2.03Zm-31.89-20.587a7.687 7.687 0 0 0-1.263 1.721 5.944 5.944 0 0 0-.659 1.882 5.67 5.67 0 0 0 .014 1.993 7.07 7.07 0 0 0 .74 2.064c.607 1.138 1.453 2.017 2.538 2.635 1.085.619 2.347.899 3.785.839 1.439-.06 2.99-.533 4.654-1.42 1.664-.887 2.92-1.913 3.767-3.08.848-1.167 1.313-2.383 1.393-3.647.081-1.264-.195-2.49-.83-3.679-.586-1.101-1.338-1.945-2.254-2.533a5.66 5.66 0 0 0-3.06-.901c-1.122-.012-2.272.296-3.448.923l-.23-.794 3.083 5.78-2.064 1.1-3.904-7.318 2.064-1.1c1.583-.844 3.14-1.239 4.67-1.187a7.937 7.937 0 0 1 4.202 1.327c1.265.836 2.305 2.017 3.119 3.543.907 1.702 1.304 3.41 1.19 5.125-.116 1.709-.72 3.317-1.813 4.823-1.096 1.5-2.658 2.79-4.684 3.87-1.52.81-2.995 1.335-4.426 1.576-1.44.237-2.789.209-4.046-.085a8.648 8.648 0 0 1-3.391-1.615c-1.004-.782-1.835-1.79-2.492-3.022a9.655 9.655 0 0 1-1.052-3.079 8.616 8.616 0 0 1 .03-3.04 8.287 8.287 0 0 1 1.054-2.791 8.54 8.54 0 0 1 2.032-2.312l1.281 2.402Zm11.142-12.312.783 2.651-23.152-1.504-.771-2.611 18.62-13.832.783 2.651-15.737 11.43.048.163 19.426 1.052Zm-8.448 1.429-3.158-10.687 2.244-.662 3.157 10.687-2.243.662Zm3.874-18.612-21.701 1.833-.622-7.331c-.143-1.695.028-3.111.515-4.248.48-1.136 1.2-2.008 2.158-2.615.959-.608 2.078-.965 3.356-1.073 1.279-.108 2.435.057 3.468.496s1.878 1.175 2.535 2.208c.65 1.034 1.046 2.391 1.188 4.072l.504 5.933-2.374.201-.496-5.849c-.098-1.158-.347-2.076-.746-2.754-.4-.684-.923-1.159-1.572-1.425-.656-.271-1.419-.371-2.288-.297-.869.073-1.614.3-2.236.68-.623.379-1.08.941-1.373 1.684-.3.744-.4 1.702-.3 2.875l.391 4.619 19.37-1.637.223 2.628Zm-10.615-9.39 9.296-6.163.258 3.051-9.302 6.079-.252-2.967Zm5.917-42.07 2.22.738-3.004 9.04-2.22-.739 3.004-9.039Zm22.221-18.85-20.24-10.012 1.78-2.003 16.285 8.378.141-.16-10.184-15.244 1.977-2.226 16.342 8.314.14-.159-10.24-15.181 1.779-2.003 12.33 18.914-1.807 2.035-16.168-7.933-.113.127 9.785 15.118-1.807 2.035Zm13.352-14.113L71.349 57.42l10.527-7.866 1.4 1.874-8.414 6.287 4.406 5.895 7.87-5.88 1.4 1.873-7.869 5.88 4.432 5.928 8.55-6.389 1.402 1.874-10.664 7.968Zm14.56-10.317-9.263-19.71 6.891-3.236c1.374-.645 2.618-.939 3.733-.883 1.112.05 2.073.37 2.883.96.807.585 1.437 1.358 1.889 2.32.398.847.576 1.618.534 2.311a3.887 3.887 0 0 1-.56 1.86 5.876 5.876 0 0 1-1.234 1.45l.091.192c.621-.245 1.327-.318 2.117-.22.791.1 1.56.412 2.309.937.748.526 1.366 1.309 1.855 2.348.464.988.657 1.982.579 2.982-.079 1-.494 1.959-1.245 2.876-.752.917-1.904 1.74-3.457 2.469l-7.122 3.344Zm1.392-3.238 4.735-2.224c1.559-.732 2.524-1.553 2.895-2.463.375-.92.358-1.813-.049-2.68a3.884 3.884 0 0 0-1.378-1.608c-.609-.411-1.307-.639-2.096-.684-.791-.051-1.617.125-2.477.529l-4.85 2.278 3.22 6.852Zm-4.197-8.931 4.427-2.08c.719-.337 1.3-.782 1.745-1.335a3.756 3.756 0 0 0 .825-1.844c.105-.676-.005-1.361-.33-2.054-.407-.866-1.054-1.46-1.941-1.779-.89-.326-1.989-.182-3.297.432l-4.505 2.115 3.076 6.545Zm43.77.544-6.717.226-.738-21.763 7.014-.236c2.112-.07 3.933.304 5.465 1.125 1.531.814 2.725 2.018 3.581 3.614.855 1.588 1.321 3.508 1.397 5.761.077 2.267-.26 4.232-1.012 5.896-.753 1.657-1.886 2.95-3.401 3.88-1.515.924-3.378 1.423-5.589 1.497Zm-4.16-2.2 3.911-.132c1.8-.06 3.279-.458 4.439-1.192 1.16-.734 2.008-1.752 2.546-3.054.537-1.301.776-2.838.716-4.609-.06-1.757-.398-3.26-1.015-4.508-.617-1.256-1.508-2.205-2.672-2.847-1.164-.649-2.596-.944-4.296-.887l-4.209.141.58 17.087Zm17.881 2.348 3.657-21.465 12.957 2.211-.392 2.306-10.358-1.767-1.236 7.252 9.687 1.653-.393 2.306-9.687-1.653-1.243 7.295 10.525 1.796-.393 2.306-13.124-2.24Zm26.36-16.475-.63 19.426.238.093 12.679-14.73 2.576 1.004-15.356 17.383-2.537-.988.454-23.192 2.576 1.004Zm9.012 27.535 11.828-18.28 11.037 7.14-1.271 1.964-8.822-5.708-3.996 6.177 8.25 5.338-1.27 1.963-8.251-5.337-4.02 6.212 8.965 5.8-1.27 1.964-11.18-7.233Zm16.031 11.343 15.267-15.524 1.881 1.849-13.627 13.857 7.22 7.097-1.64 1.668-9.101-8.947Zm30.31 20.331c-1.907 1.28-3.786 2.041-5.638 2.285-1.851.243-3.557.017-5.116-.678-1.56-.695-2.857-1.814-3.893-3.356-1.035-1.542-1.579-3.166-1.632-4.872-.053-1.707.384-3.37 1.311-4.99.926-1.622 2.343-3.072 4.25-4.351 1.907-1.28 3.786-2.042 5.638-2.285 1.851-.244 3.557-.018 5.116.677 1.56.696 2.857 1.814 3.893 3.356 1.035 1.543 1.579 3.167 1.632 4.873.053 1.706-.384 3.37-1.311 4.99-.926 1.621-2.343 3.071-4.25 4.351Zm-1.423-2.119c1.566-1.05 2.711-2.2 3.437-3.446.729-1.24 1.072-2.49 1.028-3.75-.039-1.255-.426-2.43-1.161-3.524-.736-1.095-1.678-1.901-2.828-2.419-1.146-.511-2.434-.668-3.862-.469-1.425.205-2.92.833-4.486 1.883-1.566 1.051-2.713 2.197-3.442 3.437-.726 1.247-1.069 2.497-1.029 3.752.043 1.26.433 2.437 1.168 3.532.735 1.095 1.675 1.898 2.821 2.41 1.15.517 2.438.673 3.863.468 1.428-.198 2.926-.823 4.491-1.874Zm-7.109 9.835 20.154-8.245 2.789 6.809c.647 1.582.891 2.991.731 4.228-.151 1.241-.609 2.302-1.374 3.182-.766.88-1.742 1.563-2.93 2.048-1.187.486-2.366.685-3.536.597-1.167-.082-2.245-.507-3.233-1.274-.982-.77-1.794-1.94-2.436-3.508l-1.998-4.88 2.165-.886 1.966 4.802c.443 1.083.986 1.875 1.629 2.378.642.503 1.342.772 2.1.807.766.039 1.553-.107 2.36-.437.807-.33 1.467-.776 1.98-1.338.515-.556.818-1.239.907-2.049.096-.813-.08-1.767-.529-2.863l-1.756-4.29-17.99 7.359-.999-2.44Zm6.7 17.971 21.403-4.02 2.43 12.916-2.299.432-1.943-10.324-7.232 1.358 1.817 9.655-2.299.432-1.817-9.655-7.274 1.366 1.974 10.491-2.299.432-2.461-13.083Zm2.853 17.776 21.775.371-.123 7.356c-.028 1.701-.342 3.092-.942 4.174-.592 1.082-1.396 1.876-2.412 2.383-1.015.508-2.164.75-3.447.729-1.283-.022-2.416-.304-3.4-.845-.984-.542-1.75-1.359-2.299-2.453-.542-1.094-.798-2.485-.77-4.171l.1-5.954 2.381.041-.098 5.868c-.019 1.163.135 2.101.463 2.815.329.722.802 1.248 1.42 1.577.626.337 1.374.513 2.246.528.872.014 1.637-.136 2.295-.45.657-.315 1.169-.828 1.536-1.537.373-.71.57-1.653.589-2.83l.078-4.635-19.436-.331.044-2.636Zm9.61 10.415-9.872 5.191.052-3.062 9.87-5.106-.05 2.977Zm-4.655 31.748-2.134-.959 3.904-8.689 2.134.958-3.904 8.69Z"/>
</svg>